<?xml version="1.0" standalone="no"?>
<!DOCTYPE svg PUBLIC "-//W3C//DTD SVG 1.1//EN" "http://www.w3.org/Graphics/SVG/1.1/DTD/svg11.dtd" >
<svg xmlns="http://www.w3.org/2000/svg">
<metadata></metadata>
<defs>
<font id="baskervlle2_btroman" horiz-adv-x="1024" >
<font-face units-per-em="2048" ascent="1638" descent="-410" />
<missing-glyph horiz-adv-x="516" />
<glyph horiz-adv-x="0" />
<glyph unicode="&#xd;" horiz-adv-x="516" />
<glyph unicode=" "  horiz-adv-x="516" />
<glyph unicode="&#x09;" horiz-adv-x="516" />
<glyph unicode="&#xa0;" horiz-adv-x="516" />
<glyph unicode="!" horiz-adv-x="516" d="M145 86q0 47 33 80t80 33t81 -34t34 -79q0 -47 -34 -81t-81 -34t-80 33.5t-33 81.5zM178 1243q0 72 22.5 106.5t67.5 34.5q44 0 67 -36.5t23 -104.5q0 -29 -1.5 -57t-4.5 -58l-73 -708h-39l-56 708v6q-6 61 -6 109z" />
<glyph unicode="&#x22;" horiz-adv-x="678" d="M90 1362q0 48 22 74t62 26q41 0 63.5 -26t22.5 -74q0 -9 -3 -34q-1 -5 -1 -7l-66 -457h-32l-64 457q-2 17 -3 26t-1 15zM418 1360q0 49 22.5 75.5t63.5 26.5q40 0 62 -26t22 -74q0 -14 -0.5 -23t-1.5 -18l-68 -457h-31l-65 457q0 2 -1 6q-3 22 -3 33z" />
<glyph unicode="#" horiz-adv-x="1575" d="M104 467l43 115h322l100 286h-348l43 117h348l166 471h133l-168 -471h287l168 471h131l-166 -471h307l-40 -117h-310l-100 -286h332l-43 -115h-330l-166 -469h-133l166 469h-287l-166 -469h-131l166 469h-324zM600 582h289l102 286h-291z" />
<glyph unicode="$" horiz-adv-x="1034" d="M94 236q0 30 16 48.5t42 18.5q43 0 62.5 -62.5t33.5 -82.5q27 -39 61.5 -64t73.5 -34v628q-141 68 -209 150.5t-68 185.5q0 113 76.5 202.5t200.5 119.5v133h57l1 -125q19 3 36 4.5t29 1.5q4 0 16 -1.5t35 -4.5v125h57v-133q121 -39 195 -109t74 -141q0 -28 -16.5 -44 t-45.5 -16q-56 0 -72 86q-6 29 -10 43q-12 46 -42.5 78.5t-82.5 54.5v-548q150 -71 222.5 -160t72.5 -203q0 -119 -77.5 -215.5t-217.5 -151.5v-190h-57v180q-22 -3 -43.5 -4.5t-42.5 -1.5h-31v-174h-57v178q-118 22 -203.5 93t-85.5 135zM197 1077q0 -72 43 -125t143 -100 v448q-86 -25 -136 -85t-50 -138zM440 662l1 -615q6 -1 14 -1.5t24 -0.5q17 0 36 2.5t42 7.5v559q-6 3 -19 8q-62 26 -98 40zM440 825q10 -4 28 -12q62 -27 89 -35v535q-15 2 -29.5 3t-29.5 1q-21 0 -33 -0.5t-24 -1.5zM614 70q96 45 146.5 114t50.5 154q0 79 -50.5 144.5 t-146.5 109.5v-522z" />
<glyph unicode="%" horiz-adv-x="1579" d="M94 1047q0 150 89 246t231 96q146 0 232.5 -88t86.5 -236q0 -151 -90 -245.5t-235 -94.5q-142 0 -228 88.5t-86 233.5zM223 1042q0 -131 47.5 -199.5t137.5 -68.5q97 0 147.5 77t50.5 226q0 126 -49.5 196t-136.5 70q-100 0 -148.5 -73.5t-48.5 -227.5zM381 -29l741 1418 h72l-735 -1418h-78zM842 293q0 150 89 246t230 96q147 0 233.5 -87.5t86.5 -236.5t-90 -244.5t-230 -95.5q-146 0 -232.5 87.5t-86.5 234.5zM967 289q0 -131 47 -200t137 -69q97 0 148 78t51 228q0 126 -48.5 195t-136.5 69q-100 0 -149 -74t-49 -227z" />
<glyph unicode="&#x26;" horiz-adv-x="1511" d="M125 317q0 127 65 226.5t248 238.5q0 1 -2 4q-102 180 -102 271q0 123 81.5 199.5t213.5 76.5q117 0 188.5 -58t71.5 -151q0 -85 -64.5 -156t-220.5 -155l330 -463q60 95 91.5 170.5t31.5 122.5q0 59 -36 92.5t-116 48.5v39h424v-39q-135 -31 -253 -276 q-65 -133 -111 -207l90 -115q56 -70 97 -94t93 -24q47 0 88.5 21.5t83.5 68.5h37q-26 -87 -97 -138t-167 -51q-91 0 -166 47.5t-152 155.5q-92 -103 -188 -153t-203 -50q-148 0 -252 103.5t-104 244.5zM264 401q0 -131 89.5 -228t209.5 -97q77 0 142.5 33t134.5 108 l-369 522q-104 -74 -155.5 -158.5t-51.5 -179.5zM453 1120q0 -58 30.5 -122.5t91.5 -137.5q99 50 154 118t55 138q0 75 -46.5 123.5t-119.5 48.5q-68 0 -116.5 -49t-48.5 -119z" />
<glyph unicode="'" horiz-adv-x="348" d="M90 1360q0 50 21.5 76t62.5 26t63.5 -26t22.5 -74q0 -9 -3 -34q-1 -5 -1 -7l-66 -457h-32l-66 457q-1 8 -1.5 16t-0.5 23z" />
<glyph unicode="(" horiz-adv-x="786" d="M217 463q0 282 107 514t344 461l30 -33q-172 -200 -250.5 -421.5t-78.5 -506.5q0 -297 74 -510t243 -409l-33 -31q-222 210 -329 440t-107 496z" />
<glyph unicode=")" horiz-adv-x="786" d="M78 -442q171 198 250.5 421t79.5 508q0 297 -74 509.5t-244 408.5l33 33q222 -210 329 -440t107 -496q0 -282 -107 -514.5t-343 -460.5z" />
<glyph unicode="*" d="M145 813q0 36 26 61t74 35q10 2 32 4q118 13 210 66q-80 49 -200 63q-33 4 -46 7q-47 12 -71.5 36t-24.5 58t24.5 58t57.5 24q51 0 125.5 -92.5t147.5 -133.5v17q0 73 -35 161t-35 115q0 43 22.5 70t59.5 27q36 0 59 -24.5t23 -64.5q0 -29 -35 -120t-35 -168v-13 q70 37 144.5 130.5t134.5 93.5q33 0 54.5 -23.5t21.5 -60.5q0 -36 -31 -62t-87 -35q-7 -1 -25 -2q-107 -9 -199 -61q81 -51 201 -65q32 -4 45 -7q44 -12 70 -38t26 -58q0 -33 -24 -55.5t-58 -22.5q-51 0 -125.5 91.5t-147.5 131.5v-16q0 -75 35 -163t35 -109 q0 -48 -21.5 -74.5t-60.5 -26.5q-36 0 -59 24.5t-23 63.5q0 30 35 121t35 168v12q-70 -36 -144.5 -129.5t-134.5 -93.5q-32 0 -54 23t-22 57z" />
<glyph unicode="+" horiz-adv-x="1706" d="M254 553v117h541v551h118v-551h539v-117h-539v-553h-118v553h-541z" />
<glyph unicode="," horiz-adv-x="516" d="M111 -307q95 27 155 95.5t60 145.5q0 33 -13.5 49.5t-40.5 16.5q-2 0 -16 -2t-25 -2q-45 0 -73.5 28.5t-28.5 73.5q0 48 33.5 80.5t83.5 32.5q72 0 116 -57.5t44 -153.5q0 -130 -80 -229.5t-215 -137.5v60z" />
<glyph unicode="-" horiz-adv-x="627" d="M70 344v137h485v-137h-485z" />
<glyph unicode="." horiz-adv-x="516" d="M145 86q0 47 33 80t80 33t81 -34t34 -79q0 -47 -34 -81t-81 -34t-80 33.5t-33 81.5z" />
<glyph unicode="/" horiz-adv-x="653" d="M-53 -190l669 1579h89l-668 -1579h-90z" />
<glyph unicode="0" horiz-adv-x="1034" d="M90 647q0 348 114.5 545t311.5 197q198 0 312 -183.5t114 -507.5q0 -345 -116 -536t-322 -191q-181 0 -297.5 186.5t-116.5 489.5zM260 668q0 -369 58.5 -511.5t197.5 -142.5q140 0 198 141t58 513q0 390 -57.5 534t-198.5 144t-198.5 -144t-57.5 -534z" />
<glyph unicode="1" horiz-adv-x="1034" d="M311 0v43h25q65 0 96 24.5t31 75.5v973q0 84 -19.5 103.5t-76.5 19.5h-8q-25 -2 -48 -2l1 45q75 3 142 22t132 56h28v-1217q0 -54 26 -77t89 -23h35v-43h-453z" />
<glyph unicode="2" horiz-adv-x="1034" d="M115 0l2 70q333 312 473.5 529.5t140.5 410.5q0 149 -68.5 235t-185.5 86q-118 0 -190 -65.5t-72 -171.5q0 -72 54.5 -124t54.5 -65q0 -19 -34.5 -48.5t-56.5 -29.5q-35 0 -71.5 73.5t-36.5 152.5q0 137 115.5 238.5t281.5 101.5q167 0 273 -105t106 -270 q0 -150 -112 -317.5t-535 -573.5h616l-55 -231h-43q2 12 3 23.5t1 23.5q0 35 -11.5 46t-64.5 11h-585z" />
<glyph unicode="3" horiz-adv-x="1034" d="M94 184q0 26 19.5 45t46.5 19q55 0 75 -84q7 -29 13 -41q24 -50 68.5 -75t109.5 -25q122 0 194 103.5t72 283.5q0 153 -50 235t-144 82q-61 0 -111 -51t-61 -51q-14 0 -23.5 8.5t-9.5 19.5q0 26 126 118q42 30 66 48q83 62 130 143.5t47 163.5q0 92 -58.5 150.5 t-148.5 58.5q-97 0 -159.5 -56.5t-62.5 -145.5q0 -67 32 -107.5t32 -42.5q0 -15 -30 -30t-50 -15q-26 0 -54 47t-28 107q0 127 103.5 212t265.5 85q140 0 225.5 -68.5t85.5 -177.5q0 -86 -64 -166t-251 -209q6 1 13.5 1.5t21.5 0.5q147 0 237 -99t90 -261 q0 -187 -125.5 -313t-312.5 -126q-133 0 -231.5 66t-98.5 147z" />
<glyph unicode="4" horiz-adv-x="1034" d="M61 453v59l582 848h53v-848h113q67 0 88 18.5t39 79.5h39l-21 -157h-258v-242q0 -110 25.5 -133.5t109.5 -30.5v-47h-428l1 47q93 2 122 30.5t29 145.5v230h-494zM115 514h440l8 655z" />
<glyph unicode="5" horiz-adv-x="1034" d="M92 190q0 30 18 49t46 19q53 0 87 -101q7 -21 11 -32q17 -51 64 -79t114 -28q137 0 215 124t78 343q0 185 -62.5 285t-177.5 100q-65 0 -115.5 -35.5t-90.5 -109.5h-56l33 635h510v-1q-47 -126 -129 -126h-340l-25 -428q53 65 115.5 97t136.5 32q162 0 268.5 -132.5 t106.5 -336.5q0 -223 -129 -358.5t-342 -135.5q-144 0 -240 65.5t-96 153.5z" />
<glyph unicode="6" horiz-adv-x="1034" d="M102 592q0 356 144.5 575t374.5 219q110 0 191 -47t81 -108q0 -30 -15 -47t-40 -17q-53 0 -87 75q-9 20 -14 28q-18 32 -53.5 48.5t-85.5 16.5q-160 0 -241 -155.5t-81 -464.5q81 77 152 110t154 33q146 0 251 -123t105 -303q0 -206 -110 -333.5t-287 -127.5 q-200 0 -319.5 168t-119.5 453zM266 414q0 -183 70.5 -288.5t189.5 -105.5q113 0 182.5 110t69.5 294q0 179 -62.5 279t-172.5 100q-127 0 -202 -104.5t-75 -284.5z" />
<glyph unicode="7" horiz-adv-x="1034" d="M160 1120l78 277h30q6 -21 23.5 -29t70.5 -8h19h528l-389 -1233q-25 -79 -55 -117.5t-68 -38.5q-26 0 -42.5 18.5t-16.5 47.5q0 31 40 128l3 7l442 1061h-471q-71 0 -102 -23t-53 -90h-37z" />
<glyph unicode="8" horiz-adv-x="1034" d="M102 344q0 140 82.5 235.5t237.5 135.5q-130 24 -205.5 114t-75.5 220q0 149 104.5 244.5t270.5 95.5q168 0 272.5 -94.5t104.5 -245.5q0 -121 -71 -208.5t-201 -125.5q154 -44 232.5 -138t78.5 -233q0 -167 -115 -270t-301 -103q-185 0 -299.5 104t-114.5 269zM266 365 q0 -181 62.5 -269t189.5 -88q122 0 186 86.5t64 249.5q0 180 -59.5 260t-190.5 80q-129 0 -190.5 -77.5t-61.5 -241.5zM291 1063q0 -162 56 -241t171 -79q110 0 167.5 78t57.5 228q0 161 -53.5 234t-171.5 73q-117 0 -172 -71t-55 -222z" />
<glyph unicode="9" horiz-adv-x="1034" d="M104 922q0 205 111 332.5t287 127.5q199 0 317.5 -166.5t118.5 -451.5q0 -354 -144 -575.5t-368 -221.5q-114 0 -196.5 48t-82.5 110q0 29 15.5 46t40.5 17q54 0 88 -77q8 -18 12 -25q19 -33 55.5 -50.5t85.5 -17.5q161 0 241.5 156t80.5 465q-75 -73 -147.5 -108 t-149.5 -35q-156 0 -260.5 121t-104.5 305zM264 918q0 -173 65 -270t179 -97q115 0 190.5 104.5t75.5 270.5q0 194 -67.5 300.5t-190.5 106.5q-116 0 -184 -110.5t-68 -304.5z" />
<glyph unicode=":" horiz-adv-x="563" d="M168 86q0 47 34 80t81 33q46 0 80 -34t34 -79q0 -47 -33.5 -81t-80.5 -34q-48 0 -81.5 33.5t-33.5 81.5zM168 756q0 47 34 80.5t81 33.5q46 0 80 -34.5t34 -79.5q0 -47 -33.5 -81t-80.5 -34q-48 0 -81.5 33.5t-33.5 81.5z" />
<glyph unicode=";" horiz-adv-x="563" d="M135 -307q95 27 155 95.5t60 145.5q0 33 -13.5 49.5t-39.5 16.5q-3 0 -18 -2t-25 -2q-45 0 -72.5 28.5t-27.5 73.5q0 48 33 80.5t83 32.5q73 0 116.5 -57.5t43.5 -153.5q0 -130 -79.5 -229.5t-215.5 -137.5v60zM168 768q0 47 34 81t81 34q46 0 80 -34.5t34 -80.5 q0 -47 -33.5 -81t-80.5 -34q-48 0 -81.5 33.5t-33.5 81.5z" />
<glyph unicode="&#x3c;" horiz-adv-x="1706" d="M264 559v103l1178 483v-127l-1000 -408l1000 -405v-129z" />
<glyph unicode="=" horiz-adv-x="1706" d="M254 360v117h1198v-117h-1198zM254 743v117h1198v-117h-1198z" />
<glyph unicode="&#x3e;" horiz-adv-x="1706" d="M264 76v129l1000 405l-1000 408v127l1178 -483v-103z" />
<glyph unicode="?" horiz-adv-x="764" d="M76 1245q0 56 73.5 100t178.5 44q153 0 248.5 -103t95.5 -268q0 -133 -77.5 -224.5t-184.5 -91.5q-41 0 -76.5 15t-67.5 45v-340h-47v422h47q24 -37 50.5 -53.5t60.5 -16.5q74 0 113.5 70t39.5 203q0 138 -58 219.5t-155 81.5q-43 0 -71 -20t-45 -62q-13 -34 -33 -52 t-43 -18q-22 0 -35.5 13.5t-13.5 35.5zM129 86q0 47 34 80t81 33q46 0 80 -34t34 -79q0 -47 -33.5 -81t-80.5 -34q-48 0 -81.5 33.5t-33.5 81.5z" />
<glyph unicode="@" horiz-adv-x="2019" d="M145 537q0 204 86 381t250 313q131 110 291 165.5t344 55.5q347 0 553.5 -187t206.5 -499q0 -157 -58 -297t-163 -236q-57 -52 -123.5 -80t-134.5 -28q-97 0 -149 52.5t-58 158.5q-62 -106 -139 -158.5t-170 -52.5q-125 0 -201 92t-76 244q0 108 49 216t138 193 q65 64 144 100t155 36q87 0 143 -49.5t78 -145.5l53 180h143l-170 -610q0 -2 -1 -5q-17 -59 -17 -104q0 -47 25.5 -74.5t68.5 -27.5q34 0 79 17.5t85 48.5q122 90 187 231t65 315q0 140 -50 252t-153 203q-90 79 -216 122.5t-267 43.5q-187 0 -341.5 -58.5t-275.5 -175.5 q-130 -126 -197 -293.5t-67 -369.5q0 -175 57 -304.5t181 -234.5q114 -97 261 -146.5t320 -49.5q163 0 317.5 52t295.5 154l30 -36q-148 -110 -313 -166t-342 -56q-187 0 -342 46.5t-274 138.5q-151 113 -229.5 274.5t-78.5 358.5zM750 375q0 -93 40.5 -147t108.5 -54 q66 0 126 44.5t116 133.5q57 94 91 202.5t34 197.5q0 93 -47.5 153t-120.5 60q-54 0 -99 -31t-92 -100q-72 -108 -114.5 -234t-42.5 -225z" />
<glyph unicode="A" horiz-adv-x="1366" d="M-33 0v47q79 14 127.5 59t93.5 156l461 1118l49 9l465 -1131q55 -134 94.5 -170t106.5 -41v-47h-516v47h49q52 0 78 18t26 54q0 14 -5 33t-15 45l-117 292h-518l-92 -219q-12 -30 -18.5 -57t-6.5 -49q0 -50 37.5 -80.5t106.5 -36.5v-47h-406zM367 547h473l-236 573z" />
<glyph unicode="B" horiz-adv-x="1323" d="M55 1305v47q131 12 255 18t239 6q314 0 445.5 -73.5t131.5 -243.5q0 -131 -86.5 -210t-263.5 -110q218 -26 326 -119t108 -253q0 -175 -127 -271t-358 -96h-668v47h13q116 0 155 31t39 168v864q0 133 -41 164t-168 31zM465 190q0 -75 43 -104t154 -29q156 0 238.5 82 t82.5 236q0 164 -87.5 245.5t-262.5 81.5h-168v-512zM465 760h123q172 0 252 69t80 218q0 148 -78.5 215t-253.5 67h-123v-569z" />
<glyph unicode="C" horiz-adv-x="1479" d="M90 666q0 315 185.5 520t459.5 205q141 0 257 -48.5t214 -148.5q21 34 35 74.5t23 91.5h36l9 -508h-37q-46 237 -171.5 361t-318.5 124q-218 0 -341.5 -172.5t-123.5 -484.5t123 -479.5t351 -167.5q193 0 319 121.5t168 351.5h35v-506h-35q-11 45 -29 87t-45 83 q-111 -105 -219.5 -153t-232.5 -48q-296 0 -479 190.5t-183 506.5z" />
<glyph unicode="D" horiz-adv-x="1536" d="M57 0v47h13q115 0 154.5 31t39.5 168v928q0 70 -42 100.5t-142 30.5h-23v47q166 18 304.5 27.5t248.5 9.5q398 0 616 -187.5t218 -527.5q0 -147 -49 -277.5t-138 -220.5q-91 -93 -209 -134.5t-298 -41.5h-693zM465 186q0 -76 50 -108.5t167 -32.5q258 0 396.5 161.5 t138.5 465.5q0 329 -152 499t-444 170q-22 0 -60.5 -1.5t-95.5 -4.5v-1149z" />
<glyph unicode="E" horiz-adv-x="1290" d="M55 0v47h13q117 0 156.5 33.5t39.5 163.5v874q0 129 -39.5 162t-156.5 33h-13v47h1051l6 -328h-43q-29 151 -104 216t-224 65h-276v-563h178q92 0 123 36t35 156h47v-457l-47 1q-4 141 -34.5 178.5t-123.5 37.5h-178v-469v-12q0 -120 28 -147t107 -27h184 q151 0 229.5 72.5t147.5 292.5h39l-10 -412h-1135z" />
<glyph unicode="F" horiz-adv-x="1171" d="M57 0v47h13q117 0 156.5 33t39.5 162v876q0 129 -39.5 162t-156.5 33h-13v47h1049l8 -328h-45q-29 151 -104 216t-224 65h-276v-563h180q92 0 123 36t35 156h47v-457l-47 1q-4 141 -34.5 178.5t-123.5 37.5h-180v-501q0 -92 40.5 -123t153.5 -31h15v-47h-617z" />
<glyph unicode="G" horiz-adv-x="1565" d="M90 666q0 315 185.5 520t459.5 205q141 0 255.5 -48.5t213.5 -148.5q21 39 36 75.5t24 71.5h36l9 -446h-37q-70 228 -189 335t-301 107q-218 0 -341.5 -172.5t-123.5 -484.5t123 -479.5t351 -167.5q89 0 169 30t123 78q28 31 41 85t13 141q0 101 -32.5 133t-129.5 32h-37 v50h580v-47q-118 -4 -156.5 -40.5t-38.5 -142.5v-264q-4 0 -12 1t-13 1q-63 0 -236 -59.5t-304 -59.5q-302 0 -485 189.5t-183 505.5z" />
<glyph unicode="H" horiz-adv-x="1640" d="M57 0v49h13q118 0 157 31.5t39 161.5v876q0 133 -41 164t-168 31v47h617v-47h-12q-118 0 -157.5 -31.5t-39.5 -163.5v-364h711v364q0 133 -41.5 164t-167.5 31v47h620v-47h-12q-119 0 -159 -32t-40 -163v-905q0 -101 40.5 -132.5t156.5 -31.5h14v-49h-620v49h12 q117 0 157 32t40 163v452h-711v-485q0 -100 39.5 -131t154.5 -31h15v-49h-617z" />
<glyph unicode="I" horiz-adv-x="735" d="M55 0v47h13q117 0 156.5 32t39.5 163v876q0 133 -41 164t-168 31v47h623v-47h-12q-118 0 -157.5 -31.5t-39.5 -163.5v-907q0 -100 40 -132t155 -32h14v-47h-623z" />
<glyph unicode="J" horiz-adv-x="778" d="M-301 -289q0 48 28.5 78.5t73.5 30.5q43 0 73 -28t30 -68q0 -30 -14.5 -59t-14.5 -34q0 -29 34 -47t91 -18q137 0 221 99t84 257v1260q0 70 -43.5 100.5t-146.5 30.5h-25v47h635v-47h-12q-123 0 -163 -36t-40 -159v-1143q0 -211 -129.5 -334.5t-355.5 -123.5 q-150 0 -238 53.5t-88 140.5z" />
<glyph unicode="K" horiz-adv-x="1518" d="M57 0v47h13q117 0 156.5 32t39.5 163v876q0 129 -38 160.5t-150 34.5v47h588l-1 -47q-120 -2 -160 -31.5t-40 -163.5v-446l475 436q41 37 57.5 63.5t16.5 53.5q0 42 -33 65t-94 23h-17v47h502v-47q-142 -12 -282 -142l-9 -8l-383 -348l576 -592l14 -14q144 -148 291 -162 v-47h-698v47h77q61 0 89 15.5t28 48.5q0 24 -11 45.5t-44 56.5l-461 477l-94 -84v-379q0 -116 39 -147.5t149 -32.5v-47h-596z" />
<glyph unicode="L" horiz-adv-x="1241" d="M57 0v47h13q109 0 151.5 31t42.5 110q0 2 1 8q1 25 1 48v874q0 20 -1 41.5t-1 22.5q0 71 -42 101t-142 30h-23v47h650v-47h-39q-123 0 -163 -32.5t-40 -162.5v-925q0 -87 28 -116.5t109 -29.5h184q151 0 229.5 72.5t147.5 292.5h39l-10 -412h-1135z" />
<glyph unicode="M" horiz-adv-x="1843" d="M39 0v47q113 10 168 78t55 197v845q0 81 -32 113.5t-113 32.5h-68v47h406l467 -1118l473 1118h415v-47h-94q-73 0 -105 -38t-32 -124v-938q0 -87 32.5 -126.5t102.5 -39.5h96v-47h-661v47h94q71 0 104 40t33 126v993l-512 -1206h-51l-508 1219v-897q0 -126 51.5 -193 t159.5 -82v-47h-481z" />
<glyph unicode="N" horiz-adv-x="1511" d="M43 0v47q119 2 168 45.5t49 151.5v884q0 114 -28.5 149.5t-104.5 35.5h-55v47h391l772 -1047v805q0 105 -50 149t-169 46v47h483v-47q-120 -3 -169.5 -46t-49.5 -149v-1147h-31l-942 1278v-1005q0 -107 50 -151t169 -46v-47h-483z" />
<glyph unicode="O" horiz-adv-x="1651" d="M90 682q0 325 198 516t537 191q340 0 537 -190.5t197 -516.5t-198.5 -518.5t-535.5 -192.5q-336 0 -535.5 192.5t-199.5 518.5zM317 692q0 -335 127.5 -504.5t378.5 -169.5q250 0 379 168t129 494t-129 493.5t-379 167.5q-245 0 -375.5 -166.5t-130.5 -482.5z" />
<glyph unicode="P" horiz-adv-x="1190" d="M53 1303v47q142 14 276.5 21t254.5 7q275 0 410.5 -91t135.5 -277q0 -176 -126 -272.5t-357 -96.5h-182v-434q0 -101 40.5 -130.5t164.5 -29.5h16v-47h-618v47q118 0 157 33t39 164v930q0 71 -43.5 100t-152.5 29h-15zM465 688h137q142 0 221.5 86.5t79.5 241.5 q0 153 -78.5 234t-228.5 81h-131v-643z" />
<glyph unicode="Q" horiz-adv-x="1651" d="M90 682q0 325 198 516t537 191q340 0 537 -190.5t197 -516.5q0 -254 -120.5 -426t-351.5 -248q-4 -1 -20 -6q-215 -61 -440 -174q5 0 16 1q47 3 62 3q166 0 397.5 -75.5t312.5 -75.5q82 0 131.5 34t81.5 113l37 -4q0 -133 -86.5 -224.5t-214.5 -91.5q-77 0 -163.5 27.5 t-168.5 77.5q-31 19 -88 56q-190 122 -291 122q-93 0 -191.5 -51t-107.5 -51q-14 0 -24.5 9.5t-10.5 22.5q0 41 185.5 109.5t335.5 140.5h-6q-343 0 -543.5 191.5t-200.5 519.5zM317 680q0 -325 128.5 -493.5t377.5 -168.5q250 0 379 168t129 494t-129 493.5t-379 167.5 q-248 0 -377 -168t-129 -493z" />
<glyph unicode="R" horiz-adv-x="1407" d="M53 1303v47q142 14 276.5 21t254.5 7q278 0 412 -91t134 -279q0 -142 -93 -225t-273 -101q111 -70 249 -285q36 -57 56 -86q114 -169 183 -216.5t163 -47.5v-47h-332q-101 82 -239 311q-39 65 -60 97q-79 125 -145 188t-117 63h-59v-419q0 -130 39.5 -161.5t159.5 -31.5 h24v-47h-618v47q118 0 157 33t39 164v930q0 71 -43.5 100t-152.5 29h-15zM463 700h139q147 0 224 84t77 244q0 143 -80.5 223t-226.5 80h-133v-631z" />
<glyph unicode="S" horiz-adv-x="1085" d="M100 0v453h37q52 -224 147.5 -327t250.5 -103q136 0 221.5 75.5t85.5 196.5q0 185 -293 319q-42 19 -64 29q-209 98 -285.5 185t-76.5 212q0 153 98 251t252 98q92 0 164.5 -33.5t144.5 -108.5q21 25 33 53t19 66h36v-358h-36q-41 160 -131 246.5t-216 86.5 q-98 0 -164.5 -61.5t-66.5 -155.5q0 -144 293 -279q44 -21 67 -32q199 -93 286 -194.5t87 -235.5q0 -179 -119 -294.5t-307 -115.5q-111 0 -193 37t-177 131q-22 -32 -36 -67.5t-20 -73.5h-37z" />
<glyph unicode="T" horiz-adv-x="1374" d="M47 1034l6 328h1278l10 -328h-45q-28 150 -103.5 214.5t-223.5 64.5h-181v-1094q0 -113 40.5 -142.5t160.5 -29.5h29v-47h-662v47h25q123 0 164 33t41 166v1067h-162q-154 0 -229 -63.5t-105 -215.5h-43z" />
<glyph unicode="U" horiz-adv-x="1593" d="M51 1313v49h623v-49q-126 0 -167.5 -30t-41.5 -165v-676q0 -124 17.5 -190.5t58.5 -110.5q46 -48 123 -76t165 -28q217 0 337 114t120 322v645q0 102 -47.5 148.5t-151.5 46.5v49h451v-49q-93 -8 -144 -58.5t-51 -136.5v-645q0 -249 -138 -375.5t-408 -126.5 q-255 0 -396 115.5t-141 323.5v708q0 131 -41 163t-168 32z" />
<glyph unicode="V" horiz-adv-x="1421" d="M-25 1313v47h568v-47h-70q-52 0 -79 -18.5t-27 -53.5q0 -13 5 -33.5t15 -44.5l410 -952l360 879q12 30 18.5 57t6.5 49q0 50 -37.5 80.5t-106.5 36.5v47h408v-47q-81 -15 -129.5 -59.5t-91.5 -153.5l-461 -1129h-72l-485 1131q-3 6 -7 16q-85 195 -218 195h-7z" />
<glyph unicode="W" horiz-adv-x="1933" d="M0 1313v47h504v-47q-75 -5 -106 -26t-31 -66q0 -11 2.5 -24t7.5 -30l252 -884l364 1077h64l391 -1077l233 792q10 33 14.5 59.5t4.5 47.5q0 63 -33.5 94.5t-103.5 36.5v47h370v-47q-64 -4 -107 -54t-77 -163l-340 -1125h-51l-402 1106l-372 -1106h-62l-336 1162 q-31 107 -69.5 143.5t-110.5 36.5h-6z" />
<glyph unicode="X" horiz-adv-x="1593" d="M25 0v47q98 0 188 54t188 173l306 373l-418 516q-75 93 -120.5 121.5t-100.5 28.5h-17v47h570l-1 -47q-69 -2 -98.5 -17t-29.5 -47q0 -30 64 -113q6 -8 9 -11l262 -328l279 325q31 36 46 65.5t15 53.5q0 38 -38.5 54t-139.5 18v47h506v-47h-18q-75 0 -130.5 -29.5 t-136.5 -124.5l-346 -407l381 -463q15 -18 43 -53q152 -189 271 -189h18v-47h-666l1 47q8 -1 17.5 -1.5t26.5 -0.5q67 0 98 23t31 71q0 24 -15.5 53t-49.5 70l-279 338l-235 -289q-61 -74 -76.5 -104t-15.5 -57q0 -46 39.5 -74.5t105.5 -28.5h6v-47h-540z" />
<glyph unicode="Y" horiz-adv-x="1352" d="M-14 1313v47h544v-47q-83 0 -115 -15.5t-32 -54.5q0 -17 8 -37.5t37 -66.5l322 -529l286 475q22 35 31.5 65t9.5 60q0 46 -38.5 72t-112.5 31v47h434v-47q-129 -22 -263 -238l-3 -6l-322 -530v-328q0 -100 37.5 -131t146.5 -33v-47h-567v47q109 3 145.5 34t36.5 161v290 l-343 573q-5 8 -14 23q-109 179 -228 185z" />
<glyph unicode="Z" horiz-adv-x="1251" d="M41 0v35l864 1278h-454q-137 0 -194 -53t-112 -209h-43l43 311h994v-41l-858 -1274h491q143 0 219.5 65t136.5 240h39l-39 -352h-1087z" />
<glyph unicode="[" horiz-adv-x="786" d="M289 -422v1837h461v-47h-181q-108 0 -134.5 -29.5t-26.5 -132.5v-1421q0 -102 25.5 -131t135.5 -29h181v-47h-461z" />
<glyph unicode="\" horiz-adv-x="653" d="M-53 1389h90l668 -1579h-89z" />
<glyph unicode="]" horiz-adv-x="786" d="M39 -375h180q110 0 136 29t26 131v1421q0 103 -26.5 132.5t-135.5 29.5h-180v47h461v-1837h-461v47z" />
<glyph unicode="^" horiz-adv-x="2048" d="M412 897l522 565h178l520 -565h-92l-518 436l-520 -436h-90z" />
<glyph unicode="_" d="M0 -365h1024v-118h-1024v118z" />
<glyph unicode="`" d="M221 1251q0 30 21 51t51 21q22 0 44 -13t56 -46l287 -299h-66l-329 204q-33 21 -48.5 41.5t-15.5 40.5z" />
<glyph unicode="a" horiz-adv-x="1020" d="M100 141q0 108 118 198t421 206v94q0 91 -42 130.5t-136 39.5q-70 0 -115.5 -24.5t-58.5 -69.5q-2 -7 -6 -23q-21 -90 -80 -90q-28 0 -45 17.5t-17 48.5q0 73 98.5 128.5t247.5 55.5q167 0 236.5 -59t69.5 -242v-401q0 -57 14 -78t47 -21q34 0 55.5 24.5t32.5 74.5h29 v-11q0 -78 -43.5 -124t-118.5 -46q-70 0 -112 36.5t-54 109.5q-108 -75 -195.5 -110.5t-164.5 -35.5q-84 0 -132.5 46.5t-48.5 125.5zM266 182q0 -62 32.5 -97.5t88.5 -35.5q47 0 111 31.5t141 91.5v326q-207 -70 -290 -141.5t-83 -174.5z" />
<glyph unicode="b" horiz-adv-x="1071" d="M43 1325v35q77 8 147.5 20.5t137.5 30.5v-694q67 68 139 101.5t154 33.5q169 0 274.5 -119t105.5 -311q0 -201 -112 -326t-291 -125q-91 0 -157 35t-113 109q-31 -29 -56.5 -64t-48.5 -80h-47v1213q0 87 -21 114t-83 27h-29zM328 190q49 -84 105.5 -122.5t129.5 -38.5 q121 0 194.5 108.5t73.5 290.5q0 166 -70 264.5t-188 98.5q-69 0 -131.5 -34.5t-113.5 -101.5v-465z" />
<glyph unicode="c" horiz-adv-x="883" d="M72 401q0 198 123.5 324.5t314.5 126.5q119 0 204 -48t85 -112q0 -31 -20 -51t-50 -20q-34 0 -52 18t-34 86q-9 42 -41.5 63t-89.5 21q-132 0 -200 -90.5t-68 -265.5q0 -215 70.5 -319.5t215.5 -104.5q98 0 164 45.5t90 130.5h47q-18 -108 -109.5 -171t-229.5 -63 q-195 0 -307.5 115.5t-112.5 314.5z" />
<glyph unicode="d" horiz-adv-x="1085" d="M61 403q0 203 113 327t295 124q72 0 133 -26.5t135 -90.5v447q0 87 -20.5 114t-83.5 27h-29v35q77 8 147.5 20.5t137.5 30.5v-1214q0 -84 24 -119t80 -35q4 0 13 1t14 1l-1 -37q-71 -9 -137 -18t-126 -19q-9 35 -14 69.5t-5 65.5q-65 -68 -138.5 -101.5t-158.5 -33.5 q-166 0 -272.5 121t-106.5 311zM233 397q0 -170 69.5 -268t186.5 -98q70 0 132.5 34t113.5 101v506q-52 64 -111.5 97.5t-121.5 33.5q-121 0 -195 -110t-74 -296z" />
<glyph unicode="e" horiz-adv-x="991" d="M117 399q0 201 112.5 327t290.5 126q145 0 233.5 -83.5t88.5 -221.5v-4h-551q0 -4 -1 -13q-3 -93 -3 -137q0 -195 62 -280.5t202 -85.5q100 0 171 49t93 133h47q-15 -106 -108.5 -171t-231.5 -65q-183 0 -294 117t-111 309zM295 584h381q1 16 1.5 30t0.5 31 q0 77 -45.5 120.5t-126.5 43.5q-95 0 -147 -55.5t-64 -169.5z" />
<glyph unicode="f" horiz-adv-x="668" d="M70 0v43q5 0 15 -1t15 -1q59 0 82 28t23 119v594h-135v43h135v162q0 192 95.5 303t258.5 111q110 0 188 -46.5t78 -107.5q0 -28 -19.5 -45.5t-49.5 -17.5q-28 0 -50.5 21t-37.5 61q-19 47 -49.5 69.5t-77.5 22.5q-83 0 -132 -57.5t-49 -155.5v-320h166v-43h-166v-657 q0 -38 29 -61t78 -23q15 0 22.5 0.5t14.5 1.5v-43h-434z" />
<glyph unicode="g" horiz-adv-x="1042" d="M86 -240q0 62 31.5 106t72.5 44q20 0 30.5 -8t15.5 -25q-33 -29 -48.5 -60.5t-15.5 -68.5q0 -92 90.5 -148.5t243.5 -56.5q132 0 215.5 60t83.5 155q0 77 -66 118.5t-210 53.5q-16 2 -44 4q-356 30 -356 166q0 65 46.5 109.5t133.5 62.5q-89 54 -130.5 120.5t-41.5 156.5 q0 136 92.5 220.5t241.5 84.5q77 0 141.5 -24.5t118.5 -73.5q72 60 108.5 79t69.5 19q44 0 74.5 -25.5t30.5 -60.5q0 -33 -17 -52.5t-47 -19.5q-34 0 -57 42t-35 42q-15 0 -41.5 -14t-58.5 -39q26 -46 37.5 -88t11.5 -90q0 -140 -93.5 -221.5t-254.5 -81.5h-33 q-97 0 -148 -20.5t-51 -59.5q0 -63 204 -76q70 -4 111 -8q195 -18 283 -83.5t88 -191.5q0 -142 -108 -224.5t-297 -82.5q-197 0 -309.5 70.5t-112.5 189.5zM289 547q0 -136 42 -198t134 -62q95 0 142.5 64.5t47.5 195.5q0 139 -43.5 201.5t-138.5 62.5q-98 0 -141 -61 t-43 -203z" />
<glyph unicode="h" horiz-adv-x="1139" d="M88 0v40q4 0 10 -0.5t17 -0.5q48 0 76 23.5t28 62.5v63v996q0 89 -19.5 115t-80.5 26h-31v35q74 8 144.5 20.5t138.5 30.5v-729q63 83 147 127.5t176 44.5q123 0 184.5 -68.5t61.5 -203.5v-394q0 -94 24 -120.5t89 -26.5h20v-41h-416v41h21q63 0 86.5 26.5t23.5 120.5 v408q0 106 -34 149t-113 43q-94 0 -182 -71t-88 -115v-414q0 -94 24 -120.5t88 -26.5h6v-41h-401z" />
<glyph unicode="i" horiz-adv-x="584" d="M68 0v41q6 -1 13.5 -1.5t20.5 -0.5q54 0 84.5 23t30.5 63v63v461q0 88 -19 113.5t-81 25.5h-31v37q77 8 149 21t140 31v-689q0 -94 24 -120.5t88 -26.5h21v-41h-440zM186 1276q0 43 30 72.5t73 29.5t72.5 -29.5t29.5 -72.5q0 -42 -30 -72t-72 -30t-72.5 30t-30.5 72z" />
<glyph unicode="j" horiz-adv-x="584" d="M-188 -387q0 30 16 50t41 20q40 0 63 -58q7 -18 11 -25q17 -27 46.5 -43t65.5 -16q84 0 123 61t39 193v854q0 88 -19.5 113.5t-80.5 25.5h-31v37q77 8 149 21t140 31v-1053q0 -142 -95 -234t-239 -92q-104 0 -166.5 32t-62.5 83zM186 1276q0 43 30 72.5t73 29.5 t72.5 -29.5t29.5 -72.5q0 -42 -30 -72t-72 -30t-72.5 30t-30.5 72z" />
<glyph unicode="k" horiz-adv-x="1057" d="M68 0v43q1 0 5 -1q23 -3 33 -3q51 0 81 23.5t30 62.5v63v996q0 87 -19 114t-75 27h-23v35q74 10 142.5 22.5t132.5 28.5v-948l207 155q40 31 64 64t24 57q0 21 -20.5 33t-55.5 12v41h319v-41q-56 -7 -148 -78l-8 -6l-237 -184l308 -357q1 -1 6 -7q88 -105 155 -109v-43 h-399v43q51 0 73.5 10.5t22.5 34.5q0 20 -25 51q-1 2 -2 2l-243 287l-41 -29v-211q0 -92 22.5 -118.5t83.5 -26.5h27v-43h-440z" />
<glyph unicode="l" horiz-adv-x="584" d="M68 0v41q6 -1 13.5 -1.5t20.5 -0.5q54 0 84.5 23t30.5 63v63v996q0 96 -19.5 118.5t-78.5 22.5h-17v35q72 10 139.5 22.5t133.5 28.5v-1223q0 -94 24 -120.5t88 -26.5h21v-41h-440z" />
<glyph unicode="m" horiz-adv-x="1726" d="M96 0v41q3 0 10.5 -1t10.5 -1q46 0 74 24t28 62v63v461q0 88 -19 115t-77 27h-27v34q67 7 130 19.5t122 32.5q10 -40 15.5 -78t5.5 -76q0 -6 -1 -20t-1 -21q64 84 147.5 128t177.5 44q95 0 160.5 -47t79.5 -125q64 84 147.5 128t177.5 44q124 0 186 -68.5t62 -203.5v-394 q0 -94 24 -120.5t89 -26.5h20v-41h-411v41h20q65 0 89 26.5t24 120.5v408q0 107 -35.5 148.5t-120.5 41.5q-93 0 -178.5 -65.5t-85.5 -108.5v-424q0 -94 24.5 -120.5t90.5 -26.5v-41h-393v41h20q65 0 89 26.5t24 120.5v408q0 107 -35.5 148.5t-120.5 41.5q-96 0 -184 -70 t-88 -114v-414q0 -94 24 -120.5t88 -26.5h21v-41h-404z" />
<glyph unicode="n" horiz-adv-x="1139" d="M88 0v40q4 0 10 -0.5t17 -0.5q48 0 76 23.5t28 62.5v63v461q0 89 -19.5 115.5t-80.5 26.5h-31v34q70 7 135.5 19.5t128.5 32.5q11 -40 16 -78t5 -76q0 -6 -1 -20t-1 -21q63 83 147 127.5t176 44.5q123 0 184.5 -68.5t61.5 -203.5v-394q0 -94 24 -120.5t89 -26.5h20v-41 h-416v41h21q63 0 86.5 26.5t23.5 120.5v408q0 106 -34 149t-113 43q-94 0 -182 -71t-88 -115v-414q0 -94 24 -120.5t88 -26.5h21v-41h-416z" />
<glyph unicode="o" horiz-adv-x="1006" d="M72 416q0 193 119.5 315.5t310.5 122.5t311.5 -123.5t120.5 -318.5t-121 -318t-311 -123q-191 0 -310.5 123.5t-119.5 321.5zM242 436q0 -214 65 -318t199 -104q126 0 191 101t65 297q0 212 -61 305.5t-195 93.5q-136 0 -200 -91t-64 -284z" />
<glyph unicode="p" horiz-adv-x="1090" d="M61 -432h21q65 0 89 26t24 121v934q0 86 -20.5 112.5t-82.5 26.5h-31v37q72 7 138 19.5t127 32.5q10 -38 15 -74t5 -70v-16q65 68 139 101.5t158 33.5q167 0 273 -120t106 -310q0 -202 -113 -326.5t-295 -124.5q-74 0 -136 26.5t-132 88.5v-371q0 -95 24 -121t89 -26h20 v-41h-418v41zM346 154q53 -65 113.5 -99.5t122.5 -34.5q121 0 194.5 110t73.5 296q0 171 -69.5 269t-186.5 98q-70 0 -133.5 -34.5t-114.5 -101.5v-503z" />
<glyph unicode="q" horiz-adv-x="1104" d="M74 403q0 203 112.5 327t294.5 124q71 0 133 -22.5t136 -75.5q29 16 60.5 41t63.5 57h25v-1139q0 -95 23.5 -121t87.5 -26h22v-41h-418v41h21q65 0 89 26t24 121v359q-78 -54 -146.5 -78.5t-138.5 -24.5q-176 0 -282.5 119t-106.5 313zM244 395q0 -173 71 -267.5 t201 -94.5q52 0 101.5 18t130.5 70v573q-42 48 -104.5 75.5t-129.5 27.5q-126 0 -198 -107t-72 -295z" />
<glyph unicode="r" horiz-adv-x="825" d="M84 0v40q4 0 10 -0.5t17 -0.5q48 0 76 23.5t28 62.5v63v461q0 88 -19.5 113.5t-80.5 25.5h-31v37q74 7 141 19.5t127 32.5q11 -40 16 -77t5 -73q0 -11 -1 -25.5t-3 -41.5q38 89 106 141.5t146 52.5q63 0 106 -34.5t43 -84.5q0 -30 -20.5 -50.5t-51.5 -20.5q-29 0 -46 15 t-23 46q-6 30 -22 46.5t-40 16.5q-66 0 -131 -88t-65 -178v-334q0 -93 25 -120t91 -27h29v-41h-432z" />
<glyph unicode="s" horiz-adv-x="807" d="M111 -29v279h43q30 -117 94 -174.5t164 -57.5q77 0 121.5 39.5t44.5 106.5q0 34 -14.5 60t-49.5 57q-44 36 -134 76.5t-120 58.5q-71 41 -107 95.5t-36 119.5q0 98 67 159.5t176 61.5q60 0 107 -18.5t93 -58.5q12 13 22.5 32.5t19.5 46.5h43v-266h-43q-41 114 -97 167.5 t-136 53.5q-66 0 -106 -33.5t-40 -87.5q0 -86 183 -164q66 -29 102 -47q92 -46 137 -107t45 -137q0 -122 -72.5 -193t-197.5 -71q-67 0 -119.5 20.5t-105.5 67.5q-15 -17 -25 -38t-16 -48h-43z" />
<glyph unicode="t" horiz-adv-x="743" d="M102 782v43q92 17 145.5 79t80.5 183h45v-262h243v-43h-241v-563q0 -106 18.5 -145t63.5 -39q36 0 69.5 19.5t75.5 66.5l33 -17q-32 -65 -89 -101t-128 -36q-108 0 -154.5 60t-46.5 213v542h-115z" />
<glyph unicode="u" horiz-adv-x="1124" d="M76 784v41h268v-596q0 -107 34 -149.5t114 -42.5q93 0 181.5 71t88.5 115v414q0 95 -24 121t-89 26h-20v41h286v-651q0 -78 23.5 -101.5t85.5 -23.5h23l-1 -37q-73 -1 -139.5 -11.5t-126.5 -29.5q-10 40 -15 72t-5 63q0 7 1 19t1 18q-64 -83 -147 -127.5t-175 -44.5 q-123 0 -185 68.5t-62 204.5v393q0 96 -24 121.5t-87 25.5h-6z" />
<glyph unicode="v" horiz-adv-x="909" d="M-10 783v42h366v-43q-53 0 -75.5 -13.5t-22.5 -45.5q0 -7 6 -24t19 -46l227 -514l215 482q11 26 17 46.5t6 32.5q0 38 -20.5 56.5t-72.5 25.5v43h265v-43q-45 -10 -83 -56.5t-81 -143.5l-277 -611h-51l-301 664q-9 19 -21 43.5t-12 28.5q0 15 -31.5 41.5t-72.5 34.5z" />
<glyph unicode="w" horiz-adv-x="1362" d="M-10 782v43h381l-1 -43q-69 -4 -87.5 -15.5t-18.5 -43.5q0 -4 4 -18t13 -39l174 -496l262 655h35l245 -655l187 477q10 25 15 42.5t5 27.5q0 29 -19.5 43t-76.5 22v43h258v-43q-51 -9 -81 -37.5t-62 -111.5l-258 -662h-45l-246 635l-250 -635h-45l-256 684q-2 6 -6 16 q-36 96 -127 111z" />
<glyph unicode="x" horiz-adv-x="1042" d="M31 0v43q54 10 100.5 34.5t73.5 55.5l223 260l-199 255q-3 3 -9 11q-97 123 -169 123h-12v43h395v-43h-8q-31 0 -49.5 -10.5t-18.5 -28.5q0 -23 33 -62q9 -11 13 -16l122 -159l147 169q14 16 21.5 29t7.5 21q0 26 -25.5 40t-78.5 18v42h315v-43h-12q-43 0 -83 -26 t-109 -107l-156 -180l246 -309q51 -66 86.5 -90.5t76.5 -26.5l1 -43h-412v43q51 0 73.5 10.5t22.5 34.5q0 20 -25 52l-1 1l-164 219l-156 -182q-25 -29 -34 -46t-9 -34q0 -28 18.5 -39.5t77.5 -15.5v-43h-323z" />
<glyph unicode="y" horiz-adv-x="909" d="M-8 783v42h379v-43h-13q-45 0 -64.5 -13t-19.5 -44q0 -11 3.5 -23t9.5 -26l243 -508l205 481q9 22 14 42t5 34q0 30 -25.5 43.5t-81.5 13.5v43h281v-43q-46 0 -81.5 -30.5t-62.5 -92.5l-350 -825q-15 -35 -40 -98q-98 -242 -191 -242q-32 0 -51 16.5t-19 43.5 q0 35 26.5 64.5t73.5 47.5l6 2q90 34 126 115l88 203l-324 682q-32 67 -61.5 90t-75.5 25z" />
<glyph unicode="z" horiz-adv-x="901" d="M82 0v43l539 739h-285q-80 0 -117.5 -33.5t-77.5 -150.5h-32l14 227h678v-43l-539 -739h301q78 0 124.5 48.5t84.5 172.5h39l-20 -264h-709z" />
<glyph unicode="{" d="M176 606v60q165 15 223 74t58 216v213q0 200 81 273.5t298 73.5h10v-51q-142 -2 -194 -55.5t-52 -209.5v-143q0 -226 -61 -308.5t-226 -113.5q165 -31 226 -113.5t61 -308.5v-143q0 -156 51.5 -208.5t194.5 -54.5v-51h-10q-217 0 -298 73.5t-81 272.5v213q0 158 -59 218 t-222 73z" />
<glyph unicode="|" d="M449 -483v2048h126v-2048h-126z" />
<glyph unicode="}" d="M178 -193q143 2 194.5 54.5t51.5 208.5v143q0 226 61 308.5t226 113.5q-165 31 -226 113.5t-61 308.5v143q0 156 -52 209.5t-194 55.5v51h10q216 0 297.5 -74t81.5 -273v-213q0 -157 58 -216t223 -74v-60q-163 -13 -222 -73t-59 -218v-213q0 -198 -81.5 -272t-297.5 -74 h-10v51z" />
<glyph unicode="~" horiz-adv-x="1706" d="M178 461v133q105 73 202 109t185 36q56 0 116.5 -12.5t174.5 -52.5q12 -4 35 -13q164 -59 254 -59q85 0 176 36.5t209 119.5v-131q-101 -72 -197.5 -108t-189.5 -36q-43 0 -90.5 9t-100.5 26q-30 10 -87 31q-202 72 -302 72q-83 0 -173.5 -37.5t-211.5 -122.5z" />
<glyph unicode="&#xa1;" horiz-adv-x="516" d="M145 1272q0 47 33 80.5t80 33.5q49 0 82 -32.5t33 -81.5q0 -47 -34 -80t-81 -33t-80 33t-33 80zM160 121q0 22 1.5 48t4.5 55l72 708h41l53 -709q3 -38 4.5 -66t1.5 -48q0 -72 -22.5 -107t-67.5 -35q-44 0 -66 38.5t-22 115.5z" />
<glyph unicode="&#xa2;" horiz-adv-x="1034" d="M98 469q0 218 140 367t344 149q23 0 48.5 -2.5t59.5 -7.5l111 287h55l-111 -301q86 -32 132.5 -79.5t46.5 -103.5q0 -40 -28.5 -67t-70.5 -27q-66 0 -110 135q-7 20 -11 30l-255 -687q29 -20 62.5 -30.5t70.5 -10.5q84 0 163.5 48.5t163.5 152.5l31 -21 q-81 -146 -190.5 -224.5t-233.5 -78.5q-27 0 -57.5 4t-63.5 12l-121 -307h-57l125 326q-117 66 -180.5 179.5t-63.5 256.5zM252 522q0 -111 37 -196t110 -140l265 715q-27 16 -53.5 23.5t-55.5 7.5q-128 0 -215.5 -117t-87.5 -293z" />
<glyph unicode="&#xa3;" horiz-adv-x="1034" d="M92 25q0 57 62.5 119t162.5 100q11 43 16 76.5t5 64.5q0 30 -4 65t-12 78h-183v47h164q-40 145 -59 246t-19 168q0 174 97 289t241 115q117 0 210 -80t93 -164q0 -26 -18.5 -44t-44.5 -18t-40.5 14t-29.5 62q-36 119 -73 153t-103 34q-93 0 -147 -74.5t-54 -204.5 q0 -87 41 -250.5t49 -245.5h295v-47h-292v-26q0 -56 -15 -118.5t-45 -135.5q49 -17 160 -82.5t182 -65.5q74 0 121 60.5t51 163.5h25q0 -7 1 -20t1 -19q0 -141 -67 -227.5t-175 -86.5t-211.5 87t-134.5 102q-68 -97 -115.5 -142t-83.5 -45q-26 0 -38.5 12.5t-12.5 39.5z" />
<glyph unicode="&#xa4;" horiz-adv-x="1241" d="M86 424l207 205q-44 58 -66 122t-22 134q0 69 22 133.5t66 122.5l-207 205l72 73l207 -207q60 46 122.5 68.5t133.5 22.5t135.5 -22.5t124.5 -68.5l204 207l72 -73l-205 -205q43 -57 64.5 -121t21.5 -135t-21.5 -135.5t-64.5 -120.5l205 -205l-72 -74l-204 207 q-57 -44 -121.5 -66t-138.5 -22t-136.5 21.5t-119.5 66.5l-207 -207zM309 887q0 -131 91.5 -223.5t222.5 -92.5q129 0 221 93t92 223q0 129 -91.5 221t-221.5 92t-222 -92t-92 -221z" />
<glyph unicode="&#xa5;" horiz-adv-x="1374" d="M123 1313v47h487v-47q-82 0 -114.5 -15.5t-32.5 -52.5q0 -14 10 -43.5t27 -62.5l274 -545l238 492q3 7 11 24q30 60 30 100q0 45 -39.5 71.5t-114.5 31.5v47h424v-47q-75 -11 -143.5 -74t-122.5 -170l-117 -231h336v-58h-367l-94 -186h461v-57h-490v-326q0 -99 38 -130.5 t148 -33.5l1 -47h-522v47q110 3 147 34.5t37 160.5v295h-465v57h436l-92 186h-344v58h319l-124 268q-48 101 -108.5 154t-129.5 53h-4z" />
<glyph unicode="&#xa6;" d="M449 -350v758h126v-758h-126zM449 674v758h126v-758h-126z" />
<glyph unicode="&#xa7;" d="M152 582q0 103 65 173t160 70q11 0 28 -1.5t37 -4.5q-117 95 -161.5 166t-44.5 156q0 110 76.5 179t201.5 69q116 0 190 -57.5t74 -141.5q0 -49 -28 -78t-76 -29q-38 0 -61 23t-23 59q0 35 32.5 70.5t32.5 50.5q0 24 -40.5 40.5t-104.5 16.5q-75 0 -122.5 -42.5 t-47.5 -110.5q0 -53 29.5 -98.5t140.5 -137.5l141 -116q130 -110 176.5 -182t46.5 -148q0 -117 -66 -189.5t-171 -72.5q-19 0 -33 0.5t-28 1.5q107 -82 155.5 -153t48.5 -146q0 -125 -76 -199t-206 -74q-119 0 -203 64t-84 145q0 50 27.5 80.5t72.5 30.5t70 -21.5t25 -60.5 q0 -37 -36 -74.5t-36 -42.5q0 -29 47 -53.5t115 -24.5q82 0 132 45t50 119q0 53 -32 102t-116 117l-198 164q-84 69 -132 153.5t-48 162.5zM244 643q0 -52 28 -102t93 -111q79 -77 140 -113t109 -36q68 0 115 42t47 103q0 50 -29.5 99.5t-103.5 119.5q-88 83 -142.5 114.5 t-103.5 31.5q-65 0 -109 -42.5t-44 -105.5z" />
<glyph unicode="&#xa8;" d="M215 1120q0 40 29 69.5t69 29.5q41 0 71 -29.5t30 -69.5q0 -42 -29.5 -71t-71.5 -29q-41 0 -69.5 28.5t-28.5 71.5zM596 1120q0 40 30 69.5t70 29.5t69.5 -29.5t29.5 -69.5q0 -43 -28.5 -71.5t-70.5 -28.5t-71 29t-29 71z" />
<glyph unicode="&#xa9;" horiz-adv-x="1683" d="M139 678q0 140 53 268.5t152 229.5q98 99 228 152.5t272 53.5q137 0 266.5 -53.5t226.5 -150.5q98 -97 152.5 -228.5t54.5 -271.5t-53 -268t-154 -230q-98 -100 -225 -152.5t-270 -52.5t-269 52.5t-227 152.5t-154 227t-53 271zM225 678q0 -125 47 -238.5t136 -201.5 q88 -89 198.5 -135t235.5 -46q126 0 236.5 46t197.5 135q88 90 135 203t47 237t-47.5 240.5t-132.5 201.5q-86 87 -200.5 135t-233.5 48q-123 0 -237.5 -48.5t-200.5 -136.5q-88 -89 -134.5 -202.5t-46.5 -237.5zM426 664q0 186 116 312t285 126q74 0 148 -34t82 -34 q27 0 42 14.5t21 47.5h35l2 -314h-41q-34 137 -104 206t-176 69q-123 0 -185.5 -94.5t-62.5 -278.5q0 -189 67 -285t199 -96q86 0 156 43t127 131l34 -24q-58 -105 -143 -157t-199 -52q-167 0 -285 123t-118 297z" />
<glyph unicode="&#xaa;" horiz-adv-x="766" d="M76 881q0 76 87.5 138.5t315.5 143.5v66q0 64 -31 92.5t-102 28.5q-51 0 -85.5 -18t-45.5 -50q-1 -4 -3 -13q-15 -65 -60 -65q-22 0 -35 12t-13 33q0 52 74 90.5t187 38.5q125 0 177 -41t52 -170v-280q0 -40 10 -54t35 -14q26 0 42 16.5t24 51.5h22v-6q0 -55 -32.5 -87 t-88.5 -32q-54 0 -84.5 24.5t-40.5 75.5q-79 -51 -145 -75.5t-125 -24.5q-62 0 -98.5 32t-36.5 87zM201 909q0 -42 24 -67t66 -25q35 0 83 22t105 64v227q-154 -48 -216 -98t-62 -123z" />
<glyph unicode="&#xab;" horiz-adv-x="948" d="M84 416l348 356h41l-215 -356l215 -363h-41zM479 416l344 356h41l-215 -356l215 -363h-41z" />
<glyph unicode="&#xac;" horiz-adv-x="1706" d="M254 741v117h1198v-502h-115v385h-1083z" />
<glyph unicode="&#xad;" horiz-adv-x="627" d="M70 344v137h485v-137h-485z" />
<glyph unicode="&#xae;" horiz-adv-x="1683" d="M139 678q0 140 53 268.5t152 229.5q98 99 228 152.5t272 53.5q138 0 268.5 -54t228.5 -152q97 -97 150 -228t53 -272q0 -137 -55.5 -267.5t-157.5 -232.5q-99 -99 -224.5 -150t-270.5 -51q-137 0 -263 52.5t-227 152.5t-154 227t-53 271zM225 678q0 -127 46.5 -239 t136.5 -201q88 -89 198.5 -135t235.5 -46q126 0 236.5 46t197.5 135q88 90 135 203t47 237t-47.5 241.5t-132.5 200.5q-86 87 -200.5 135t-233.5 48q-122 0 -236 -48t-202 -137t-134.5 -202.5t-46.5 -237.5zM469 291v40q72 3 99.5 24.5t27.5 76.5v516q0 55 -26 76t-101 25 v43h393q147 0 232.5 -54.5t85.5 -146.5q0 -76 -69.5 -124t-217.5 -75q93 -29 142 -77.5t71 -133.5q6 -22 11 -63q13 -88 59 -88q32 0 49.5 34t17.5 99h43v-12q0 -88 -40.5 -133.5t-119.5 -45.5q-46 0 -78.5 17t-48.5 49q-18 40 -21 113.5t-9 95.5q-20 68 -70.5 100.5 t-136.5 32.5h-33v-248q0 -54 26.5 -75.5t98.5 -25.5v-40h-385zM729 719q16 -1 32 -1.5t34 -0.5q112 0 173.5 45.5t61.5 128.5q0 73 -53 117.5t-143 44.5q-52 0 -78.5 -18.5t-26.5 -53.5v-262z" />
<glyph unicode="&#xaf;" d="M246 1057v125h516v-125h-516z" />
<glyph unicode="&#xb0;" horiz-adv-x="674" d="M55 1171q0 119 82.5 201t200.5 82q117 0 200 -83t83 -200q0 -116 -83.5 -199t-201.5 -83t-199.5 82t-81.5 200zM135 1171q0 -84 59.5 -143t143.5 -59t142.5 59t58.5 143t-58.5 142.5t-142.5 58.5t-143.5 -58.5t-59.5 -142.5z" />
<glyph unicode="&#xb1;" horiz-adv-x="1706" d="M254 41v117h1198v-117h-1198zM254 719v117h541v344h118v-344h539v-117h-539v-344h-118v344h-541z" />
<glyph unicode="&#xb2;" horiz-adv-x="682" d="M76 545l2 41q221 189 313 319.5t92 245.5q0 89 -45.5 140.5t-122.5 51.5q-78 0 -126 -39t-48 -104q0 -43 36 -74t36 -39q0 -11 -22.5 -29t-36.5 -18q-24 0 -48 44t-24 92q0 82 76 143t186 61q111 0 180.5 -62.5t69.5 -162.5q0 -89 -73 -189t-353 -345h407l-36 -140h-29 q0 4 1 14t1 15q0 21 -8 28t-41 7h-387z" />
<glyph unicode="&#xb3;" horiz-adv-x="682" d="M61 655q0 16 13.5 27.5t29.5 11.5q37 0 51 -50q5 -19 9 -26q15 -29 44 -44t73 -15q81 0 128.5 61.5t47.5 170.5q0 92 -33.5 141t-95.5 49q-39 0 -72.5 -30.5t-40.5 -30.5q-9 0 -15.5 5t-6.5 11q0 16 79 68q30 20 47 32q56 38 86.5 86t30.5 99q0 54 -38 89.5t-97 35.5 q-65 0 -106 -34t-41 -87q0 -41 21.5 -65.5l21.5 -24.5q0 -10 -19.5 -18.5t-34.5 -8.5q-17 0 -35 28t-18 64q0 76 68 127t174 51q92 0 149.5 -41t57.5 -106q0 -52 -42.5 -100t-166.5 -125q4 1 9 1.5t13 0.5q98 0 157.5 -60t59.5 -157q0 -112 -82.5 -187.5t-205.5 -75.5 q-89 0 -154.5 39.5t-65.5 87.5z" />
<glyph unicode="&#xb4;" d="M328 965l288 299q36 35 56.5 47t42.5 12q30 0 50.5 -21t20.5 -51q0 -21 -15 -41t-46 -41l-330 -204h-67z" />
<glyph unicode="&#xb5;" horiz-adv-x="1120" d="M-80 -330q0 40 64.5 273.5t105.5 427.5l109 514h147l-104 -492q-6 -30 -9.5 -58.5t-3.5 -53.5q0 -83 42 -129t118 -46q98 0 163.5 68.5t94.5 200.5l111 510h149l-114 -531q-13 -59 -17 -87.5t-4 -49.5q0 -48 26 -78t66 -30q35 0 65.5 18t51.5 51t41 93.5t39 60.5 q12 0 19 -10t7 -27q0 -25 -11 -66.5t-29 -83.5q-38 -82 -95 -122.5t-135 -40.5q-68 0 -108.5 51t-40.5 139v23q-46 -110 -116 -164t-165 -54q-96 0 -152.5 54.5t-70.5 161.5q-27 -136 -52 -339q-34 -272 -112 -272q-37 0 -58.5 23.5t-21.5 64.5z" />
<glyph unicode="&#xb6;" d="M76 1130q0 157 107.5 253t285.5 96h479v-78h-125v-1401h-94v1401h-182v-1401h-96v782q-173 8 -274 102.5t-101 245.5z" />
<glyph unicode="&#xb7;" horiz-adv-x="516" d="M135 680q0 50 37 86.5t86 36.5q50 0 86.5 -37t36.5 -86q0 -50 -36 -86.5t-87 -36.5t-87 35.5t-36 87.5z" />
<glyph unicode="&#xb8;" d="M244 -371l35 78q58 -34 118 -53t105 -19q63 0 93 22.5t30 70.5q0 41 -30 65.5t-81 24.5q-10 0 -25.5 -1.5t-39.5 -4.5v188h63v-112q23 2 40 3.5t30 2.5q79 0 126.5 -45t47.5 -119q0 -83 -58 -129.5t-161 -46.5q-55 0 -118.5 15.5t-174.5 59.5z" />
<glyph unicode="&#xb9;" horiz-adv-x="682" d="M205 545v26h16q43 0 63.5 14.5t20.5 45.5v583q0 51 -12.5 62.5t-50.5 11.5h-5q-17 -2 -32 -2v29q50 1 94.5 12t87.5 33h19v-729q0 -33 16.5 -46.5t58.5 -13.5h23v-26h-299z" />
<glyph unicode="&#xba;" horiz-adv-x="754" d="M53 1073q0 135 90.5 221t233.5 86t233 -86t90 -223t-90 -223t-233 -86t-233.5 86.5t-90.5 224.5zM182 1087q0 -149 48.5 -221.5t148.5 -72.5q95 0 143.5 70t48.5 208q0 148 -45.5 213.5t-146.5 65.5t-149 -64t-48 -199z" />
<glyph unicode="&#xbb;" horiz-adv-x="948" d="M84 53l213 357l-213 362h39l348 -362l-348 -357h-39zM475 53l215 357l-215 362h41l348 -362l-348 -357h-41z" />
<glyph unicode="&#xbc;" horiz-adv-x="1645" d="M197 598v25h16q41 0 60.5 13.5t19.5 41.5v545q0 46 -12.5 57.5t-49.5 11.5h-5q-16 -2 -29 -2v27q50 1 91.5 11.5t80.5 31.5h18v-682q0 -30 16.5 -42.5t57.5 -12.5h20v-25h-284zM309 -29l944 1418h80l-946 -1418h-78zM1032 254v33l367 475h33v-475h71q42 0 55.5 10.5 t25.5 44.5h24l-13 -88h-163v-135q0 -61 16 -74.5t70 -17.5v-27h-271v27q59 0 77.5 16t18.5 82v129h-311zM1065 289h278l5 366z" />
<glyph unicode="&#xbd;" horiz-adv-x="1645" d="M197 598v25h16q41 0 60.5 13.5t19.5 41.5v545q0 46 -12.5 57.5t-49.5 11.5h-5q-16 -2 -29 -2v27q50 1 91.5 11.5t80.5 31.5h18v-682q0 -30 16.5 -42.5t57.5 -12.5h20v-25h-284zM309 -29l944 1418h80l-946 -1418h-78zM1065 0l2 39q210 176 298.5 297.5t88.5 228.5 q0 84 -43 132t-117 48q-75 0 -120.5 -36.5t-45.5 -96.5q0 -40 35 -68.5t35 -35.5q0 -12 -21.5 -28.5t-35.5 -16.5q-22 0 -46 41.5t-24 85.5q0 76 73.5 133t178.5 57t171.5 -58.5t66.5 -152.5q0 -84 -73 -179.5t-335 -317.5h389l-35 -131h-26q0 3 1 12t1 14q0 20 -8 26.5 t-41 6.5h-369z" />
<glyph unicode="&#xbe;" horiz-adv-x="1645" d="M59 700q0 16 12 26.5t29 10.5q35 0 48 -48q5 -16 8 -22q15 -28 43 -42.5t69 -14.5q77 0 122.5 58.5t45.5 158.5q0 87 -31.5 133t-91.5 46q-38 0 -69.5 -29t-38.5 -29q-8 0 -14.5 5t-6.5 12q0 14 74 61q30 19 47 31q53 34 82 79.5t29 92.5q0 51 -36.5 84t-92.5 33 q-61 0 -100.5 -32t-39.5 -81q0 -38 19.5 -60.5t19.5 -23.5q0 -8 -18.5 -17.5t-30.5 -9.5q-16 0 -33.5 26.5t-17.5 59.5q0 73 65 120.5t166 47.5q89 0 143 -38.5t54 -100.5q0 -47 -41 -92t-157 -117q3 1 7.5 1.5t12.5 0.5q94 0 150.5 -55.5t56.5 -147.5q0 -104 -79.5 -174.5 t-197.5 -70.5q-83 0 -145 36.5t-62 81.5zM309 -29l944 1418h80l-946 -1418h-78zM1032 254v33l367 475h33v-475h71q42 0 55.5 10.5t25.5 44.5h24l-13 -88h-163v-135q0 -61 16 -74.5t70 -17.5v-27h-271v27q59 0 77.5 16t18.5 82v129h-311zM1065 289h278l5 366z" />
<glyph unicode="&#xbf;" horiz-adv-x="764" d="M76 342q0 132 77 222.5t185 90.5q41 0 76 -14t67 -43v340h47v-422h-47q-24 37 -50 53.5t-60 16.5q-75 0 -114.5 -70t-39.5 -203q0 -137 58.5 -219t154.5 -82q45 0 71 18.5t50 73.5q12 27 33 43.5t43 16.5q19 0 32 -14t13 -35q0 -56 -73.5 -100t-178.5 -44 q-153 0 -248.5 103t-95.5 268zM391 1272q0 46 33.5 80t81.5 34t80 -32t32 -82q0 -47 -33 -80t-79 -33q-48 0 -81.5 33t-33.5 80z" />
<glyph unicode="&#xc0;" horiz-adv-x="1366" d="M-33 0v47q79 14 127.5 59t93.5 156l461 1118l49 9l465 -1131q55 -134 94.5 -170t106.5 -41v-47h-516v47h49q52 0 78 18t26 54q0 14 -5 33t-15 45l-117 292h-518l-92 -219q-12 -30 -18.5 -57t-6.5 -49q0 -50 37.5 -80.5t106.5 -36.5v-47h-406zM367 547h473l-236 573z M393 1788q0 30 21 51t51 21q22 0 44 -13t56 -46l287 -299h-66l-329 204q-33 21 -48.5 41.5t-15.5 40.5z" />
<glyph unicode="&#xc1;" horiz-adv-x="1366" d="M-33 0v47q79 14 127.5 59t93.5 156l461 1118l49 9l465 -1131q55 -134 94.5 -170t106.5 -41v-47h-516v47h49q52 0 78 18t26 54q0 14 -5 33t-15 45l-117 292h-518l-92 -219q-12 -30 -18.5 -57t-6.5 -49q0 -50 37.5 -80.5t106.5 -36.5v-47h-406zM367 547h473l-236 573z M500 1502l288 299q36 35 56.5 47t42.5 12q30 0 50.5 -21t20.5 -51q0 -21 -15 -41t-46 -41l-330 -204h-67z" />
<glyph unicode="&#xc2;" horiz-adv-x="1366" d="M-33 0v47q79 14 127.5 59t93.5 156l461 1118l49 9l465 -1131q55 -134 94.5 -170t106.5 -41v-47h-516v47h49q52 0 78 18t26 54q0 14 -5 33t-15 45l-117 292h-518l-92 -219q-12 -30 -18.5 -57t-6.5 -49q0 -50 37.5 -80.5t106.5 -36.5v-47h-406zM367 547h473l-236 573z M385 1502l233 348h117l232 -348h-58l-233 211l-232 -211h-59z" />
<glyph unicode="&#xc3;" horiz-adv-x="1366" d="M-33 0v47q79 14 127.5 59t93.5 156l461 1118l49 9l465 -1131q55 -134 94.5 -170t106.5 -41v-47h-516v47h49q52 0 78 18t26 54q0 14 -5 33t-15 45l-117 292h-518l-92 -219q-12 -30 -18.5 -57t-6.5 -49q0 -50 37.5 -80.5t106.5 -36.5v-47h-406zM367 547h473l-236 573z M389 1549q18 105 68 158t131 53q18 0 33.5 -2t29.5 -7l108 -28q24 -6 36 -8t20 -2q38 0 59.5 19.5t36.5 66.5h52q-21 -104 -69 -154.5t-126 -50.5q-16 0 -33.5 2.5t-40.5 7.5l-107 29q-12 3 -26 4.5t-31 1.5q-33 0 -54.5 -21.5t-35.5 -68.5h-51z" />
<glyph unicode="&#xc4;" horiz-adv-x="1366" d="M-33 0v47q79 14 127.5 59t93.5 156l461 1118l49 9l465 -1131q55 -134 94.5 -170t106.5 -41v-47h-516v47h49q52 0 78 18t26 54q0 14 -5 33t-15 45l-117 292h-518l-92 -219q-12 -30 -18.5 -57t-6.5 -49q0 -50 37.5 -80.5t106.5 -36.5v-47h-406zM367 547h473l-236 573z M387 1657q0 40 29 69.5t69 29.5q41 0 71 -29.5t30 -69.5q0 -42 -29.5 -71t-71.5 -29q-41 0 -69.5 28.5t-28.5 71.5zM768 1657q0 40 30 69.5t70 29.5t69.5 -29.5t29.5 -69.5q0 -43 -28.5 -71.5t-70.5 -28.5t-71 29t-29 71z" />
<glyph unicode="&#xc5;" horiz-adv-x="1366" d="M-33 0v47q79 14 127.5 59t93.5 156l461 1118l49 9l465 -1131q55 -134 94.5 -170t106.5 -41v-47h-516v47h49q52 0 78 18t26 54q0 14 -5 33t-15 45l-117 292h-518l-92 -219q-12 -30 -18.5 -57t-6.5 -49q0 -50 37.5 -80.5t106.5 -36.5v-47h-406zM367 547h473l-236 573z M455 1720q0 100 69.5 170t169.5 70q101 0 171.5 -70t70.5 -170q0 -101 -70 -171t-172 -70q-101 0 -170 70t-69 171zM545 1720q0 -63 43 -106t106 -43q62 0 106 43.5t44 105.5t-44 106t-106 44q-61 0 -105 -44t-44 -106z" />
<glyph unicode="&#xc6;" horiz-adv-x="1849" d="M-35 0v51q81 6 156 76.5t139 200.5l422 856q13 26 19.5 45.5t7.5 32.5q0 32 -23 44.5t-90 12.5h-61v41h1130l6 -328h-43q-29 151 -104 216t-224 65h-276v-594h178q92 0 123 36t35 156h47v-456h-47q-4 142 -34.5 179.5t-123.5 37.5h-178v-439v-12q0 -120 28 -147t107 -27 h184q151 0 229.5 72.5t147.5 292.5h39l-10 -412h-1133v47h13q117 0 156.5 34t39.5 163v428h-346l-178 -363q-27 -54 -37 -85.5t-10 -57.5q0 -53 39 -85t104 -32h6v-49h-438zM508 719h317v594h-28z" />
<glyph unicode="&#xc7;" horiz-adv-x="1479" d="M90 666q0 315 185.5 520t459.5 205q141 0 257 -48.5t214 -148.5q21 34 35 74.5t23 91.5h36l9 -508h-37q-46 237 -171.5 361t-318.5 124q-218 0 -341.5 -172.5t-123.5 -484.5t123 -479.5t351 -167.5q193 0 319 121.5t168 351.5h35v-506h-35q-11 45 -29 87t-45 83 q-111 -105 -219.5 -153t-232.5 -48q-296 0 -479 190.5t-183 506.5zM471 -371l35 78q58 -34 118 -53t105 -19q63 0 93 22.5t30 70.5q0 41 -30 65.5t-81 24.5q-10 0 -25.5 -1.5t-39.5 -4.5v188h63v-112q23 2 40 3.5t30 2.5q79 0 126.5 -45t47.5 -119q0 -83 -58 -129.5 t-161 -46.5q-55 0 -118.5 15.5t-174.5 59.5z" />
<glyph unicode="&#xc8;" horiz-adv-x="1290" d="M55 0v47h13q117 0 156.5 33.5t39.5 163.5v874q0 129 -39.5 162t-156.5 33h-13v47h1051l6 -328h-43q-29 151 -104 216t-224 65h-276v-563h178q92 0 123 36t35 156h47v-457l-47 1q-4 141 -34.5 178.5t-123.5 37.5h-178v-469v-12q0 -120 28 -147t107 -27h184 q151 0 229.5 72.5t147.5 292.5h39l-10 -412h-1135zM354 1788q0 30 21 51t51 21q22 0 44 -13t56 -46l287 -299h-66l-329 204q-33 21 -48.5 41.5t-15.5 40.5z" />
<glyph unicode="&#xc9;" horiz-adv-x="1290" d="M55 0v47h13q117 0 156.5 33.5t39.5 163.5v874q0 129 -39.5 162t-156.5 33h-13v47h1051l6 -328h-43q-29 151 -104 216t-224 65h-276v-563h178q92 0 123 36t35 156h47v-457l-47 1q-4 141 -34.5 178.5t-123.5 37.5h-178v-469v-12q0 -120 28 -147t107 -27h184 q151 0 229.5 72.5t147.5 292.5h39l-10 -412h-1135zM461 1502l288 299q36 35 56.5 47t42.5 12q30 0 50.5 -21t20.5 -51q0 -21 -15 -41t-46 -41l-330 -204h-67z" />
<glyph unicode="&#xca;" horiz-adv-x="1290" d="M55 0v47h13q117 0 156.5 33.5t39.5 163.5v874q0 129 -39.5 162t-156.5 33h-13v47h1051l6 -328h-43q-29 151 -104 216t-224 65h-276v-563h178q92 0 123 36t35 156h47v-457l-47 1q-4 141 -34.5 178.5t-123.5 37.5h-178v-469v-12q0 -120 28 -147t107 -27h184 q151 0 229.5 72.5t147.5 292.5h39l-10 -412h-1135zM346 1502l233 348h117l232 -348h-58l-233 211l-232 -211h-59z" />
<glyph unicode="&#xcb;" horiz-adv-x="1290" d="M55 0v47h13q117 0 156.5 33.5t39.5 163.5v874q0 129 -39.5 162t-156.5 33h-13v47h1051l6 -328h-43q-29 151 -104 216t-224 65h-276v-563h178q92 0 123 36t35 156h47v-457l-47 1q-4 141 -34.5 178.5t-123.5 37.5h-178v-469v-12q0 -120 28 -147t107 -27h184 q151 0 229.5 72.5t147.5 292.5h39l-10 -412h-1135zM348 1657q0 40 29 69.5t69 29.5q41 0 71 -29.5t30 -69.5q0 -42 -29.5 -71t-71.5 -29q-41 0 -69.5 28.5t-28.5 71.5zM729 1657q0 40 30 69.5t70 29.5t69.5 -29.5t29.5 -69.5q0 -43 -28.5 -71.5t-70.5 -28.5t-71 29t-29 71z " />
<glyph unicode="&#xcc;" horiz-adv-x="735" d="M55 0v47h13q117 0 156.5 32t39.5 163v876q0 133 -41 164t-168 31v47h623v-47h-12q-118 0 -157.5 -31.5t-39.5 -163.5v-907q0 -100 40 -132t155 -32h14v-47h-623zM78 1788q0 30 21 51t51 21q22 0 44 -13t56 -46l287 -299h-66l-329 204q-33 21 -48.5 41.5t-15.5 40.5z" />
<glyph unicode="&#xcd;" horiz-adv-x="735" d="M55 0v47h13q117 0 156.5 32t39.5 163v876q0 133 -41 164t-168 31v47h623v-47h-12q-118 0 -157.5 -31.5t-39.5 -163.5v-907q0 -100 40 -132t155 -32h14v-47h-623zM185 1502l288 299q36 35 56.5 47t42.5 12q30 0 50.5 -21t20.5 -51q0 -21 -15 -41t-46 -41l-330 -204h-67z " />
<glyph unicode="&#xce;" horiz-adv-x="735" d="M55 0v47h13q117 0 156.5 32t39.5 163v876q0 133 -41 164t-168 31v47h623v-47h-12q-118 0 -157.5 -31.5t-39.5 -163.5v-907q0 -100 40 -132t155 -32h14v-47h-623zM70 1502l233 348h117l232 -348h-58l-233 211l-232 -211h-59z" />
<glyph unicode="&#xcf;" horiz-adv-x="735" d="M55 0v47h13q117 0 156.5 32t39.5 163v876q0 133 -41 164t-168 31v47h623v-47h-12q-118 0 -157.5 -31.5t-39.5 -163.5v-907q0 -100 40 -132t155 -32h14v-47h-623zM72 1657q0 40 29 69.5t69 29.5q41 0 71 -29.5t30 -69.5q0 -42 -29.5 -71t-71.5 -29q-41 0 -69.5 28.5 t-28.5 71.5zM453 1657q0 40 30 69.5t70 29.5t69.5 -29.5t29.5 -69.5q0 -43 -28.5 -71.5t-70.5 -28.5t-71 29t-29 71z" />
<glyph unicode="&#xd0;" horiz-adv-x="1536" d="M0 692v66h264v416q0 70 -42 100.5t-142 30.5h-23v47q166 18 304.5 27.5t248.5 9.5q398 0 616 -187.5t218 -527.5q0 -147 -49 -277.5t-138 -220.5q-91 -93 -209 -134.5t-298 -41.5h-693v47h13q115 0 154.5 31t39.5 168v446h-264zM465 186q0 -76 50 -108.5t167 -32.5 q258 0 396.5 161.5t138.5 465.5q0 329 -152 499t-444 170q-22 0 -60.5 -1.5t-95.5 -4.5v-577h371v-66h-371v-506z" />
<glyph unicode="&#xd1;" horiz-adv-x="1511" d="M43 0v47q119 2 168 45.5t49 151.5v884q0 114 -28.5 149.5t-104.5 35.5h-55v47h391l772 -1047v805q0 105 -50 149t-169 46v47h483v-47q-120 -3 -169.5 -46t-49.5 -149v-1147h-31l-942 1278v-1005q0 -107 50 -151t169 -46v-47h-483zM483 1549q18 105 68 158t131 53 q18 0 33.5 -2t29.5 -7l108 -28q24 -6 36 -8t20 -2q38 0 59.5 19.5t36.5 66.5h52q-21 -104 -69 -154.5t-126 -50.5q-16 0 -33.5 2.5t-40.5 7.5l-107 29q-12 3 -26 4.5t-31 1.5q-33 0 -54.5 -21.5t-35.5 -68.5h-51z" />
<glyph unicode="&#xd2;" horiz-adv-x="1651" d="M90 682q0 325 198 516t537 191q340 0 537 -190.5t197 -516.5t-198.5 -518.5t-535.5 -192.5q-336 0 -535.5 192.5t-199.5 518.5zM317 692q0 -335 127.5 -504.5t378.5 -169.5q250 0 379 168t129 494t-129 493.5t-379 167.5q-245 0 -375.5 -166.5t-130.5 -482.5zM534 1788 q0 30 21 51t51 21q22 0 44 -13t56 -46l287 -299h-66l-329 204q-33 21 -48.5 41.5t-15.5 40.5z" />
<glyph unicode="&#xd3;" horiz-adv-x="1651" d="M90 682q0 325 198 516t537 191q340 0 537 -190.5t197 -516.5t-198.5 -518.5t-535.5 -192.5q-336 0 -535.5 192.5t-199.5 518.5zM317 692q0 -335 127.5 -504.5t378.5 -169.5q250 0 379 168t129 494t-129 493.5t-379 167.5q-245 0 -375.5 -166.5t-130.5 -482.5zM641 1502 l288 299q36 35 56.5 47t42.5 12q30 0 50.5 -21t20.5 -51q0 -21 -15 -41t-46 -41l-330 -204h-67z" />
<glyph unicode="&#xd4;" horiz-adv-x="1651" d="M90 682q0 325 198 516t537 191q340 0 537 -190.5t197 -516.5t-198.5 -518.5t-535.5 -192.5q-336 0 -535.5 192.5t-199.5 518.5zM317 692q0 -335 127.5 -504.5t378.5 -169.5q250 0 379 168t129 494t-129 493.5t-379 167.5q-245 0 -375.5 -166.5t-130.5 -482.5zM526 1502 l233 348h117l232 -348h-58l-233 211l-232 -211h-59z" />
<glyph unicode="&#xd5;" horiz-adv-x="1651" d="M90 682q0 325 198 516t537 191q340 0 537 -190.5t197 -516.5t-198.5 -518.5t-535.5 -192.5q-336 0 -535.5 192.5t-199.5 518.5zM317 692q0 -335 127.5 -504.5t378.5 -169.5q250 0 379 168t129 494t-129 493.5t-379 167.5q-245 0 -375.5 -166.5t-130.5 -482.5zM530 1549 q18 105 68 158t131 53q18 0 33.5 -2t29.5 -7l108 -28q24 -6 36 -8t20 -2q38 0 59.5 19.5t36.5 66.5h52q-21 -104 -69 -154.5t-126 -50.5q-16 0 -33.5 2.5t-40.5 7.5l-107 29q-12 3 -26 4.5t-31 1.5q-33 0 -54.5 -21.5t-35.5 -68.5h-51z" />
<glyph unicode="&#xd6;" horiz-adv-x="1651" d="M90 682q0 325 198 516t537 191q340 0 537 -190.5t197 -516.5t-198.5 -518.5t-535.5 -192.5q-336 0 -535.5 192.5t-199.5 518.5zM317 692q0 -335 127.5 -504.5t378.5 -169.5q250 0 379 168t129 494t-129 493.5t-379 167.5q-245 0 -375.5 -166.5t-130.5 -482.5zM528 1657 q0 40 29 69.5t69 29.5q41 0 71 -29.5t30 -69.5q0 -42 -29.5 -71t-71.5 -29q-41 0 -69.5 28.5t-28.5 71.5zM909 1657q0 40 30 69.5t70 29.5t69.5 -29.5t29.5 -69.5q0 -43 -28.5 -71.5t-70.5 -28.5t-71 29t-29 71z" />
<glyph unicode="&#xd7;" horiz-adv-x="1706" d="M301 135l475 475l-475 477l80 82l477 -477l475 477l82 -82l-475 -477l475 -475l-82 -82l-475 475l-477 -475z" />
<glyph unicode="&#xd8;" horiz-adv-x="1651" d="M90 682q0 327 197.5 517t537.5 190q140 0 247.5 -30.5t217.5 -98.5l164 176l49 -37l-162 -182q111 -108 164.5 -239t53.5 -296q0 -326 -198.5 -518.5t-535.5 -192.5q-153 0 -268.5 35t-212.5 111l-180 -203l-45 45l180 199q-107 100 -158 228.5t-51 295.5zM301 680 q0 -144 20.5 -242.5t65.5 -177.5l827 918q-70 81 -168.5 122t-222.5 41q-257 0 -389.5 -167.5t-132.5 -493.5zM424 201q56 -85 163 -134t236 -49q259 0 392 168t133 494q0 151 -22.5 255t-70.5 185z" />
<glyph unicode="&#xd9;" horiz-adv-x="1593" d="M51 1313v49h623v-49q-126 0 -167.5 -30t-41.5 -165v-676q0 -124 17.5 -190.5t58.5 -110.5q46 -48 123 -76t165 -28q217 0 337 114t120 322v645q0 102 -47.5 148.5t-151.5 46.5v49h451v-49q-93 -8 -144 -58.5t-51 -136.5v-645q0 -249 -138 -375.5t-408 -126.5 q-255 0 -396 115.5t-141 323.5v708q0 131 -41 163t-168 32zM547 1788q0 30 21 51t51 21q22 0 44 -13t56 -46l287 -299h-66l-329 204q-33 21 -48.5 41.5t-15.5 40.5z" />
<glyph unicode="&#xda;" horiz-adv-x="1593" d="M51 1313v49h623v-49q-126 0 -167.5 -30t-41.5 -165v-676q0 -124 17.5 -190.5t58.5 -110.5q46 -48 123 -76t165 -28q217 0 337 114t120 322v645q0 102 -47.5 148.5t-151.5 46.5v49h451v-49q-93 -8 -144 -58.5t-51 -136.5v-645q0 -249 -138 -375.5t-408 -126.5 q-255 0 -396 115.5t-141 323.5v708q0 131 -41 163t-168 32zM654 1502l288 299q36 35 56.5 47t42.5 12q30 0 50.5 -21t20.5 -51q0 -21 -15 -41t-46 -41l-330 -204h-67z" />
<glyph unicode="&#xdb;" horiz-adv-x="1593" d="M51 1313v49h623v-49q-126 0 -167.5 -30t-41.5 -165v-676q0 -124 17.5 -190.5t58.5 -110.5q46 -48 123 -76t165 -28q217 0 337 114t120 322v645q0 102 -47.5 148.5t-151.5 46.5v49h451v-49q-93 -8 -144 -58.5t-51 -136.5v-645q0 -249 -138 -375.5t-408 -126.5 q-255 0 -396 115.5t-141 323.5v708q0 131 -41 163t-168 32zM539 1502l233 348h117l232 -348h-58l-233 211l-232 -211h-59z" />
<glyph unicode="&#xdc;" horiz-adv-x="1593" d="M51 1313v49h623v-49q-126 0 -167.5 -30t-41.5 -165v-676q0 -124 17.5 -190.5t58.5 -110.5q46 -48 123 -76t165 -28q217 0 337 114t120 322v645q0 102 -47.5 148.5t-151.5 46.5v49h451v-49q-93 -8 -144 -58.5t-51 -136.5v-645q0 -249 -138 -375.5t-408 -126.5 q-255 0 -396 115.5t-141 323.5v708q0 131 -41 163t-168 32zM541 1657q0 40 29 69.5t69 29.5q41 0 71 -29.5t30 -69.5q0 -42 -29.5 -71t-71.5 -29q-41 0 -69.5 28.5t-28.5 71.5zM922 1657q0 40 30 69.5t70 29.5t69.5 -29.5t29.5 -69.5q0 -43 -28.5 -71.5t-70.5 -28.5t-71 29 t-29 71z" />
<glyph unicode="&#xdd;" horiz-adv-x="1352" d="M-14 1313v47h544v-47q-83 0 -115 -15.5t-32 -54.5q0 -17 8 -37.5t37 -66.5l322 -529l286 475q22 35 31.5 65t9.5 60q0 46 -38.5 72t-112.5 31v47h434v-47q-129 -22 -263 -238l-3 -6l-322 -530v-328q0 -100 37.5 -131t146.5 -33v-47h-567v47q109 3 145.5 34t36.5 161v290 l-343 573q-5 8 -14 23q-109 179 -228 185zM492 1502l288 299q36 35 56.5 47t42.5 12q30 0 50.5 -21t20.5 -51q0 -21 -15 -41t-46 -41l-330 -204h-67z" />
<glyph unicode="&#xde;" horiz-adv-x="1171" d="M55 1313v47h619v-47h-12q-119 0 -159 -32t-40 -163v-78q30 1 71.5 2.5t49.5 1.5q275 0 410.5 -91t135.5 -277q0 -176 -126.5 -273.5t-356.5 -97.5h-182v-61v-37q0 -101 40.5 -130.5t164.5 -29.5h16v-47h-618v47q120 0 159 35.5t39 161.5v874q0 125 -39.5 160t-158.5 35 h-13zM465 352h137q142 0 221.5 86.5t79.5 241.5q0 153 -78.5 234t-228.5 81h-131v-643z" />
<glyph unicode="&#xdf;" horiz-adv-x="1143" d="M45 0v43h8q77 0 105 31t28 121v794q0 181 109 292.5t283 111.5q158 0 265 -92.5t107 -227.5q0 -96 -63.5 -169.5t-198.5 -131.5q153 -40 233 -141t80 -254q0 -170 -89.5 -276.5t-229.5 -106.5q-67 0 -109.5 25t-42.5 65q0 20 16 35.5t38 15.5q26 0 74 -42t83 -42 q52 0 75.5 67t23.5 220q0 229 -73.5 321.5t-248.5 92.5h-18v28q152 4 221.5 68.5t69.5 202.5q0 148 -58.5 222.5t-175.5 74.5q-105 0 -167 -68.5t-62 -183.5v-901q0 -93 22.5 -122.5t81.5 -29.5h12v-43h-399z" />
<glyph unicode="&#xe0;" horiz-adv-x="1020" d="M100 141q0 108 118 198t421 206v94q0 91 -42 130.5t-136 39.5q-70 0 -115.5 -24.5t-58.5 -69.5q-2 -7 -6 -23q-21 -90 -80 -90q-28 0 -45 17.5t-17 48.5q0 73 98.5 128.5t247.5 55.5q167 0 236.5 -59t69.5 -242v-401q0 -57 14 -78t47 -21q34 0 55.5 24.5t32.5 74.5h29 v-11q0 -78 -43.5 -124t-118.5 -46q-70 0 -112 36.5t-54 109.5q-108 -75 -195.5 -110.5t-164.5 -35.5q-84 0 -132.5 46.5t-48.5 125.5zM205 1251q0 30 21 51t51 21q22 0 44 -13t56 -46l287 -299h-66l-329 204q-33 21 -48.5 41.5t-15.5 40.5zM266 182q0 -62 32.5 -97.5 t88.5 -35.5q47 0 111 31.5t141 91.5v326q-207 -70 -290 -141.5t-83 -174.5z" />
<glyph unicode="&#xe1;" horiz-adv-x="1020" d="M100 141q0 108 118 198t421 206v94q0 91 -42 130.5t-136 39.5q-70 0 -115.5 -24.5t-58.5 -69.5q-2 -7 -6 -23q-21 -90 -80 -90q-28 0 -45 17.5t-17 48.5q0 73 98.5 128.5t247.5 55.5q167 0 236.5 -59t69.5 -242v-401q0 -57 14 -78t47 -21q34 0 55.5 24.5t32.5 74.5h29 v-11q0 -78 -43.5 -124t-118.5 -46q-70 0 -112 36.5t-54 109.5q-108 -75 -195.5 -110.5t-164.5 -35.5q-84 0 -132.5 46.5t-48.5 125.5zM266 182q0 -62 32.5 -97.5t88.5 -35.5q47 0 111 31.5t141 91.5v326q-207 -70 -290 -141.5t-83 -174.5zM312 965l288 299q36 35 56.5 47 t42.5 12q30 0 50.5 -21t20.5 -51q0 -21 -15 -41t-46 -41l-330 -204h-67z" />
<glyph unicode="&#xe2;" horiz-adv-x="1020" d="M100 141q0 108 118 198t421 206v94q0 91 -42 130.5t-136 39.5q-70 0 -115.5 -24.5t-58.5 -69.5q-2 -7 -6 -23q-21 -90 -80 -90q-28 0 -45 17.5t-17 48.5q0 73 98.5 128.5t247.5 55.5q167 0 236.5 -59t69.5 -242v-401q0 -57 14 -78t47 -21q34 0 55.5 24.5t32.5 74.5h29 v-11q0 -78 -43.5 -124t-118.5 -46q-70 0 -112 36.5t-54 109.5q-108 -75 -195.5 -110.5t-164.5 -35.5q-84 0 -132.5 46.5t-48.5 125.5zM197 965l233 348h117l232 -348h-58l-233 211l-232 -211h-59zM266 182q0 -62 32.5 -97.5t88.5 -35.5q47 0 111 31.5t141 91.5v326 q-207 -70 -290 -141.5t-83 -174.5z" />
<glyph unicode="&#xe3;" horiz-adv-x="1020" d="M100 141q0 108 118 198t421 206v94q0 91 -42 130.5t-136 39.5q-70 0 -115.5 -24.5t-58.5 -69.5q-2 -7 -6 -23q-21 -90 -80 -90q-28 0 -45 17.5t-17 48.5q0 73 98.5 128.5t247.5 55.5q167 0 236.5 -59t69.5 -242v-401q0 -57 14 -78t47 -21q34 0 55.5 24.5t32.5 74.5h29 v-11q0 -78 -43.5 -124t-118.5 -46q-70 0 -112 36.5t-54 109.5q-108 -75 -195.5 -110.5t-164.5 -35.5q-84 0 -132.5 46.5t-48.5 125.5zM201 1012q18 105 68 158t131 53q18 0 33.5 -2t29.5 -7l108 -28q24 -6 36 -8t20 -2q38 0 59.5 19.5t36.5 66.5h52q-21 -104 -69 -154.5 t-126 -50.5q-16 0 -33.5 2.5t-40.5 7.5l-107 29q-12 3 -26 4.5t-31 1.5q-33 0 -54.5 -21.5t-35.5 -68.5h-51zM266 182q0 -62 32.5 -97.5t88.5 -35.5q47 0 111 31.5t141 91.5v326q-207 -70 -290 -141.5t-83 -174.5z" />
<glyph unicode="&#xe4;" horiz-adv-x="1020" d="M100 141q0 108 118 198t421 206v94q0 91 -42 130.5t-136 39.5q-70 0 -115.5 -24.5t-58.5 -69.5q-2 -7 -6 -23q-21 -90 -80 -90q-28 0 -45 17.5t-17 48.5q0 73 98.5 128.5t247.5 55.5q167 0 236.5 -59t69.5 -242v-401q0 -57 14 -78t47 -21q34 0 55.5 24.5t32.5 74.5h29 v-11q0 -78 -43.5 -124t-118.5 -46q-70 0 -112 36.5t-54 109.5q-108 -75 -195.5 -110.5t-164.5 -35.5q-84 0 -132.5 46.5t-48.5 125.5zM199 1120q0 40 29 69.5t69 29.5q41 0 71 -29.5t30 -69.5q0 -42 -29.5 -71t-71.5 -29q-41 0 -69.5 28.5t-28.5 71.5zM266 182 q0 -62 32.5 -97.5t88.5 -35.5q47 0 111 31.5t141 91.5v326q-207 -70 -290 -141.5t-83 -174.5zM580 1120q0 40 30 69.5t70 29.5t69.5 -29.5t29.5 -69.5q0 -43 -28.5 -71.5t-70.5 -28.5t-71 29t-29 71z" />
<glyph unicode="&#xe5;" horiz-adv-x="1020" d="M100 141q0 108 118 198t421 206v94q0 91 -42 130.5t-136 39.5q-70 0 -115.5 -24.5t-58.5 -69.5q-2 -7 -6 -23q-21 -90 -80 -90q-28 0 -45 17.5t-17 48.5q0 73 98.5 128.5t247.5 55.5q167 0 236.5 -59t69.5 -242v-401q0 -57 14 -78t47 -21q34 0 55.5 24.5t32.5 74.5h29 v-11q0 -79 -44 -125.5t-118 -46.5q-69 0 -111.5 37t-58.5 111q-106 -76 -193 -112t-163 -36q-83 0 -132 47.5t-49 126.5zM250 1161q0 100 70.5 170t171.5 70q99 0 169 -70t70 -170q0 -101 -69 -170t-170 -69q-102 0 -172 69t-70 170zM266 182q0 -62 32.5 -97.5t88.5 -35.5 q47 0 111 31.5t141 91.5v326q-207 -70 -290 -141.5t-83 -174.5zM340 1161q0 -63 43 -106t106 -43t107.5 43.5t44.5 105.5t-45 107t-107 45q-61 0 -105 -45t-44 -107z" />
<glyph unicode="&#xe6;" horiz-adv-x="1442" d="M90 141q0 108 118 198t421 206v94q0 92 -41 131t-135 39q-70 0 -115.5 -24.5t-59.5 -70.5q-2 -7 -5 -22q-21 -90 -80 -90q-29 0 -45.5 17.5t-16.5 48.5q0 72 95 128t237 56q88 0 152.5 -21t132.5 -69q69 47 132.5 68.5t131.5 21.5q144 0 232.5 -83.5t88.5 -221.5v-4h-551 v-256q0 -118 71 -189t189 -71q101 0 172 49t93 133h47q-16 -108 -111 -173t-237 -65q-110 0 -190.5 42t-160.5 143q-98 -94 -192 -139.5t-191 -45.5q-85 0 -133.5 45.5t-48.5 124.5zM256 182q0 -62 32.5 -97.5t88.5 -35.5q55 0 117 36t135 110v303q-209 -73 -291 -143.5 t-82 -172.5zM786 584h381q1 15 1.5 29.5t0.5 31.5q0 77 -46 120.5t-128 43.5q-94 0 -145 -55t-64 -170z" />
<glyph unicode="&#xe7;" horiz-adv-x="883" d="M72 401q0 198 123.5 324.5t314.5 126.5q119 0 204 -48t85 -112q0 -31 -20 -51t-50 -20q-34 0 -52 18t-34 86q-9 42 -41.5 63t-89.5 21q-132 0 -200 -90.5t-68 -265.5q0 -215 70.5 -319.5t215.5 -104.5q98 0 164 45.5t90 130.5h47q-18 -108 -109.5 -171t-229.5 -63 q-195 0 -307.5 115.5t-112.5 314.5zM217 -371l35 78q58 -34 118 -53t105 -19q63 0 93 22.5t30 70.5q0 41 -30 65.5t-81 24.5q-10 0 -25.5 -1.5t-39.5 -4.5v188h63v-112q23 2 40 3.5t30 2.5q79 0 126.5 -45t47.5 -119q0 -83 -58 -129.5t-161 -46.5q-55 0 -118.5 15.5 t-174.5 59.5z" />
<glyph unicode="&#xe8;" horiz-adv-x="991" d="M117 399q0 201 112.5 327t290.5 126q145 0 233.5 -83.5t88.5 -221.5v-4h-551q0 -4 -1 -13q-3 -93 -3 -137q0 -195 62 -280.5t202 -85.5q100 0 171 49t93 133h47q-15 -106 -108.5 -171t-231.5 -65q-183 0 -294 117t-111 309zM225 1251q0 30 21 51t51 21q22 0 44 -13 t56 -46l287 -299h-66l-329 204q-33 21 -48.5 41.5t-15.5 40.5zM295 584h381q1 16 1.5 30t0.5 31q0 77 -45.5 120.5t-126.5 43.5q-95 0 -147 -55.5t-64 -169.5z" />
<glyph unicode="&#xe9;" horiz-adv-x="991" d="M117 399q0 201 112.5 327t290.5 126q145 0 233.5 -83.5t88.5 -221.5v-4h-551q0 -4 -1 -13q-3 -93 -3 -137q0 -195 62 -280.5t202 -85.5q100 0 171 49t93 133h47q-15 -106 -108.5 -171t-231.5 -65q-183 0 -294 117t-111 309zM295 584h381q1 16 1.5 30t0.5 31 q0 77 -45.5 120.5t-126.5 43.5q-95 0 -147 -55.5t-64 -169.5zM332 965l288 299q36 35 56.5 47t42.5 12q30 0 50.5 -21t20.5 -51q0 -21 -15 -41t-46 -41l-330 -204h-67z" />
<glyph unicode="&#xea;" horiz-adv-x="991" d="M117 399q0 201 112.5 327t290.5 126q145 0 233.5 -83.5t88.5 -221.5v-4h-551q0 -4 -1 -13q-3 -93 -3 -137q0 -195 62 -280.5t202 -85.5q100 0 171 49t93 133h47q-15 -106 -108.5 -171t-231.5 -65q-183 0 -294 117t-111 309zM217 965l233 348h117l232 -348h-58l-233 211 l-232 -211h-59zM295 584h381q1 16 1.5 30t0.5 31q0 77 -45.5 120.5t-126.5 43.5q-95 0 -147 -55.5t-64 -169.5z" />
<glyph unicode="&#xeb;" horiz-adv-x="991" d="M117 399q0 201 112.5 327t290.5 126q145 0 233.5 -83.5t88.5 -221.5v-4h-551q0 -4 -1 -13q-3 -93 -3 -137q0 -195 62 -280.5t202 -85.5q100 0 171 49t93 133h47q-15 -106 -108.5 -171t-231.5 -65q-183 0 -294 117t-111 309zM219 1120q0 40 29 69.5t69 29.5q41 0 71 -29.5 t30 -69.5q0 -42 -29.5 -71t-71.5 -29q-41 0 -69.5 28.5t-28.5 71.5zM295 584h381q1 16 1.5 30t0.5 31q0 77 -45.5 120.5t-126.5 43.5q-95 0 -147 -55.5t-64 -169.5zM600 1120q0 40 30 69.5t70 29.5t69.5 -29.5t29.5 -69.5q0 -43 -28.5 -71.5t-70.5 -28.5t-71 29t-29 71z" />
<glyph unicode="&#xec;" horiz-adv-x="584" d="M2 1251q0 30 21 51t51 21q22 0 44 -13t56 -46l287 -299h-66l-329 204q-33 21 -48.5 41.5t-15.5 40.5zM68 0v41q6 -1 13.5 -1.5t20.5 -0.5q54 0 84.5 23t30.5 63v63v461q0 88 -19 113.5t-81 25.5h-31v37q77 8 149 21t140 31v-689q0 -94 24 -120.5t88 -26.5h21v-41h-440z " />
<glyph unicode="&#xed;" horiz-adv-x="584" d="M68 0v41q6 -1 13.5 -1.5t20.5 -0.5q54 0 84.5 23t30.5 63v63v461q0 88 -19 113.5t-81 25.5h-31v37q77 8 149 21t140 31v-689q0 -94 24 -120.5t88 -26.5h21v-41h-440zM109 965l288 299q36 35 56.5 47t42.5 12q30 0 50.5 -21t20.5 -51q0 -21 -15 -41t-46 -41l-330 -204h-67 z" />
<glyph unicode="&#xee;" horiz-adv-x="584" d="M-6 965l233 348h117l232 -348h-58l-233 211l-232 -211h-59zM68 0v41q6 -1 13.5 -1.5t20.5 -0.5q54 0 84.5 23t30.5 63v63v461q0 88 -19 113.5t-81 25.5h-31v37q77 8 149 21t140 31v-689q0 -94 24 -120.5t88 -26.5h21v-41h-440z" />
<glyph unicode="&#xef;" horiz-adv-x="584" d="M-4 1120q0 40 29 69.5t69 29.5q41 0 71 -29.5t30 -69.5q0 -42 -29.5 -71t-71.5 -29q-41 0 -69.5 28.5t-28.5 71.5zM68 0v41q6 -1 13.5 -1.5t20.5 -0.5q54 0 84.5 23t30.5 63v63v461q0 88 -19 113.5t-81 25.5h-31v37q77 8 149 21t140 31v-689q0 -94 24 -120.5t88 -26.5h21 v-41h-440zM377 1120q0 40 30 69.5t70 29.5t69.5 -29.5t29.5 -69.5q0 -43 -28.5 -71.5t-70.5 -28.5t-71 29t-29 71z" />
<glyph unicode="&#xf0;" horiz-adv-x="1006" d="M72 412q0 196 119.5 319t310.5 123q37 0 68.5 -5.5t62.5 -17.5q-14 56 -57 120t-107 124l-301 -166l-29 54l277 151q-67 58 -133.5 110.5t-135.5 102.5l27 33q89 -50 169.5 -98t156.5 -97l303 168l31 -51l-279 -156q198 -169 288.5 -333.5t90.5 -354.5 q0 -215 -117.5 -341t-314.5 -126q-191 0 -310.5 122t-119.5 319zM242 436q0 -214 65 -318t199 -104q126 0 191 101t65 297q0 212 -61 305.5t-195 93.5q-136 0 -200 -91t-64 -284z" />
<glyph unicode="&#xf1;" horiz-adv-x="1139" d="M88 0v40q4 0 10 -0.5t17 -0.5q48 0 76 23.5t28 62.5v63v461q0 89 -19.5 115.5t-80.5 26.5h-31v34q70 7 135.5 19.5t128.5 32.5q11 -40 16 -78t5 -76q0 -6 -1 -20t-1 -21q63 83 147 127.5t176 44.5q123 0 184.5 -68.5t61.5 -203.5v-394q0 -94 24 -120.5t89 -26.5h20v-41 h-416v41h21q63 0 86.5 26.5t23.5 120.5v408q0 106 -34 149t-113 43q-94 0 -182 -71t-88 -115v-414q0 -94 24 -120.5t88 -26.5h21v-41h-416zM283 1012q18 105 68 158t131 53q18 0 33.5 -2t29.5 -7l108 -28q24 -6 36 -8t20 -2q38 0 59.5 19.5t36.5 66.5h52 q-21 -104 -69 -154.5t-126 -50.5q-16 0 -33.5 2.5t-40.5 7.5l-107 29q-12 3 -26 4.5t-31 1.5q-33 0 -54.5 -21.5t-35.5 -68.5h-51z" />
<glyph unicode="&#xf2;" horiz-adv-x="1006" d="M72 416q0 193 119.5 315.5t310.5 122.5t311.5 -123.5t120.5 -318.5t-121 -318t-311 -123q-191 0 -310.5 123.5t-119.5 321.5zM213 1251q0 30 21 51t51 21q22 0 44 -13t56 -46l287 -299h-66l-329 204q-33 21 -48.5 41.5t-15.5 40.5zM242 436q0 -214 65 -318t199 -104 q126 0 191 101t65 297q0 212 -61 305.5t-195 93.5q-136 0 -200 -91t-64 -284z" />
<glyph unicode="&#xf3;" horiz-adv-x="1006" d="M72 416q0 193 119.5 315.5t310.5 122.5t311.5 -123.5t120.5 -318.5t-121 -318t-311 -123q-191 0 -310.5 123.5t-119.5 321.5zM242 436q0 -214 65 -318t199 -104q126 0 191 101t65 297q0 212 -61 305.5t-195 93.5q-136 0 -200 -91t-64 -284zM320 965l288 299 q36 35 56.5 47t42.5 12q30 0 50.5 -21t20.5 -51q0 -21 -15 -41t-46 -41l-330 -204h-67z" />
<glyph unicode="&#xf4;" horiz-adv-x="1006" d="M72 416q0 193 119.5 315.5t310.5 122.5t311.5 -123.5t120.5 -318.5t-121 -318t-311 -123q-191 0 -310.5 123.5t-119.5 321.5zM205 965l233 348h117l232 -348h-58l-233 211l-232 -211h-59zM242 436q0 -214 65 -318t199 -104q126 0 191 101t65 297q0 212 -61 305.5 t-195 93.5q-136 0 -200 -91t-64 -284z" />
<glyph unicode="&#xf5;" horiz-adv-x="1006" d="M72 416q0 193 119.5 315.5t310.5 122.5t311.5 -123.5t120.5 -318.5t-121 -318t-311 -123q-191 0 -310.5 123.5t-119.5 321.5zM209 1012q18 105 68 158t131 53q18 0 33.5 -2t29.5 -7l108 -28q24 -6 36 -8t20 -2q38 0 59.5 19.5t36.5 66.5h52q-21 -104 -69 -154.5 t-126 -50.5q-16 0 -33.5 2.5t-40.5 7.5l-107 29q-12 3 -26 4.5t-31 1.5q-33 0 -54.5 -21.5t-35.5 -68.5h-51zM242 436q0 -214 65 -318t199 -104q126 0 191 101t65 297q0 212 -61 305.5t-195 93.5q-136 0 -200 -91t-64 -284z" />
<glyph unicode="&#xf6;" horiz-adv-x="1006" d="M72 416q0 193 119.5 315.5t310.5 122.5t311.5 -123.5t120.5 -318.5t-121 -318t-311 -123q-191 0 -310.5 123.5t-119.5 321.5zM207 1120q0 40 29 69.5t69 29.5q41 0 71 -29.5t30 -69.5q0 -42 -29.5 -71t-71.5 -29q-41 0 -69.5 28.5t-28.5 71.5zM242 436q0 -214 65 -318 t199 -104q126 0 191 101t65 297q0 212 -61 305.5t-195 93.5q-136 0 -200 -91t-64 -284zM588 1120q0 40 30 69.5t70 29.5t69.5 -29.5t29.5 -69.5q0 -43 -28.5 -71.5t-70.5 -28.5t-71 29t-29 71z" />
<glyph unicode="&#xf7;" horiz-adv-x="1706" d="M254 553v117h1198v-117h-1198zM739 250q0 48 34 81.5t81 33.5t81 -34t34 -81t-33.5 -81t-81.5 -34t-81.5 33.5t-33.5 81.5zM739 971q0 47 34 80.5t81 33.5q48 0 81.5 -33.5t33.5 -80.5q0 -48 -33.5 -81.5t-81.5 -33.5q-49 0 -82 33.5t-33 81.5z" />
<glyph unicode="&#xf8;" horiz-adv-x="1006" d="M29 2l145 137q-51 64 -76.5 139t-25.5 160q0 197 119.5 320t310.5 123q87 0 164 -29.5t141 -87.5l137 135l49 -45l-141 -141q41 -67 61.5 -135t20.5 -140q0 -195 -120.5 -317.5t-311.5 -122.5q-76 0 -146.5 23t-134.5 69l-145 -137zM229 406q0 -59 5 -102.5t16 -84.5 l485 473q-34 71 -93 108.5t-136 37.5q-142 0 -209.5 -105.5t-67.5 -326.5zM281 154q32 -55 89 -84t134 -29q143 0 207.5 93t64.5 304q0 50 -4.5 96t-13.5 88z" />
<glyph unicode="&#xf9;" horiz-adv-x="1124" d="M76 784v41h268v-596q0 -107 34 -149.5t114 -42.5q93 0 181.5 71t88.5 115v414q0 95 -24 121t-89 26h-20v41h286v-651q0 -78 23.5 -101.5t85.5 -23.5h23l-1 -37q-73 -1 -139.5 -11.5t-126.5 -29.5q-10 40 -15 72t-5 63q0 7 1 19t1 18q-64 -83 -147 -127.5t-175 -44.5 q-123 0 -185 68.5t-62 204.5v393q0 96 -24 121.5t-87 25.5h-6zM241 1251q0 30 21 51t51 21q22 0 44 -13t56 -46l287 -299h-66l-329 204q-33 21 -48.5 41.5t-15.5 40.5z" />
<glyph unicode="&#xfa;" horiz-adv-x="1124" d="M76 784v41h268v-596q0 -107 34 -149.5t114 -42.5q93 0 181.5 71t88.5 115v414q0 95 -24 121t-89 26h-20v41h286v-651q0 -78 23.5 -101.5t85.5 -23.5h23l-1 -37q-73 -1 -139.5 -11.5t-126.5 -29.5q-10 40 -15 72t-5 63q0 7 1 19t1 18q-64 -83 -147 -127.5t-175 -44.5 q-123 0 -185 68.5t-62 204.5v393q0 96 -24 121.5t-87 25.5h-6zM348 965l288 299q36 35 56.5 47t42.5 12q30 0 50.5 -21t20.5 -51q0 -21 -15 -41t-46 -41l-330 -204h-67z" />
<glyph unicode="&#xfb;" horiz-adv-x="1124" d="M76 784v41h268v-596q0 -107 34 -149.5t114 -42.5q93 0 181.5 71t88.5 115v414q0 95 -24 121t-89 26h-20v41h286v-651q0 -78 23.5 -101.5t85.5 -23.5h23l-1 -37q-73 -1 -139.5 -11.5t-126.5 -29.5q-10 40 -15 72t-5 63q0 7 1 19t1 18q-64 -83 -147 -127.5t-175 -44.5 q-123 0 -185 68.5t-62 204.5v393q0 96 -24 121.5t-87 25.5h-6zM233 965l233 348h117l232 -348h-58l-233 211l-232 -211h-59z" />
<glyph unicode="&#xfc;" horiz-adv-x="1124" d="M76 784v41h268v-596q0 -107 34 -149.5t114 -42.5q93 0 181.5 71t88.5 115v414q0 95 -24 121t-89 26h-20v41h286v-651q0 -78 23.5 -101.5t85.5 -23.5h23l-1 -37q-73 -1 -139.5 -11.5t-126.5 -29.5q-10 40 -15 72t-5 63q0 7 1 19t1 18q-64 -83 -147 -127.5t-175 -44.5 q-123 0 -185 68.5t-62 204.5v393q0 96 -24 121.5t-87 25.5h-6zM235 1120q0 40 29 69.5t69 29.5q41 0 71 -29.5t30 -69.5q0 -42 -29.5 -71t-71.5 -29q-41 0 -69.5 28.5t-28.5 71.5zM616 1120q0 40 30 69.5t70 29.5t69.5 -29.5t29.5 -69.5q0 -43 -28.5 -71.5t-70.5 -28.5 t-71 29t-29 71z" />
<glyph unicode="&#xfd;" horiz-adv-x="909" d="M-8 783v42h379v-43h-13q-45 0 -64.5 -13t-19.5 -44q0 -11 3.5 -23t9.5 -26l243 -508l205 481q9 22 14 42t5 34q0 30 -25.5 43.5t-81.5 13.5v43h281v-43q-46 0 -81.5 -30.5t-62.5 -92.5l-350 -825q-15 -35 -40 -98q-98 -242 -191 -242q-32 0 -51 16.5t-19 43.5 q0 35 26.5 64.5t73.5 47.5l6 2q90 34 126 115l88 203l-324 682q-32 67 -61.5 90t-75.5 25zM271 965l288 299q36 35 56.5 47t42.5 12q30 0 50.5 -21t20.5 -51q0 -21 -15 -41t-46 -41l-330 -204h-67z" />
<glyph unicode="&#xfe;" horiz-adv-x="1090" d="M37 -432h20q64 0 87.5 26.5t23.5 120.5v1469q0 94 -20 117.5t-80 23.5h-17v35q72 10 139 22.5t129 28.5v-694q65 68 139 101.5t158 33.5q168 0 273.5 -120t105.5 -310q0 -202 -113 -326.5t-294 -124.5q-75 0 -137 26.5t-132 88.5v-371q0 -95 24 -121t89 -26h21v-41h-416 v41zM322 154q52 -65 112 -99.5t121 -34.5q121 0 194.5 110t73.5 296q0 171 -69 269t-187 98q-70 0 -132 -34.5t-113 -101.5v-503z" />
<glyph unicode="&#xff;" horiz-adv-x="909" d="M-8 783v42h379v-43h-13q-45 0 -64.5 -13t-19.5 -44q0 -11 3.5 -23t9.5 -26l243 -508l205 481q9 22 14 42t5 34q0 30 -25.5 43.5t-81.5 13.5v43h281v-43q-46 0 -81.5 -30.5t-62.5 -92.5l-350 -825q-15 -35 -40 -98q-98 -242 -191 -242q-32 0 -51 16.5t-19 43.5 q0 35 26.5 64.5t73.5 47.5l6 2q90 34 126 115l88 203l-324 682q-32 67 -61.5 90t-75.5 25zM158 1120q0 40 29 69.5t69 29.5q41 0 71 -29.5t30 -69.5q0 -42 -29.5 -71t-71.5 -29q-41 0 -69.5 28.5t-28.5 71.5zM539 1120q0 40 30 69.5t70 29.5t69.5 -29.5t29.5 -69.5 q0 -43 -28.5 -71.5t-70.5 -28.5t-71 29t-29 71z" />
<glyph unicode="&#x152;" horiz-adv-x="2030" d="M90 682q0 302 168.5 488t446.5 190h1140l6 -328h-43q-28 151 -103.5 216t-223.5 65h-277v-563h178q93 0 125 37t36 155h46v-457l-47 1q-3 139 -34.5 177.5t-125.5 38.5h-178v-469q0 -130 28.5 -158t108.5 -28h183q150 0 228.5 72.5t148.5 292.5h38l-10 -412h-1224 q-279 8 -447 194.5t-168 487.5zM317 680q0 -322 116.5 -479.5t354.5 -157.5q125 0 171.5 34t46.5 167v874q0 132 -46.5 166.5t-171.5 34.5q-238 0 -354.5 -158t-116.5 -481z" />
<glyph unicode="&#x153;" horiz-adv-x="1597" d="M72 412q0 195 119.5 317.5t310.5 122.5q103 0 186 -37t141 -108q86 81 158 113t158 32q144 0 233.5 -84t89.5 -221v-4h-553v-224q0 -142 67.5 -217t195.5 -75q100 0 171 49t93 133h47q-16 -108 -109.5 -173t-234.5 -65q-103 0 -182 38t-142 118q-71 -79 -155 -117.5 t-185 -38.5q-174 0 -291.5 125.5t-117.5 315.5zM242 436q0 -214 65 -318t199 -104q126 0 191 101t65 297q0 212 -61 305.5t-195 93.5q-136 0 -200 -91t-64 -284zM922 584h378l3 33t2 28q0 77 -47 121.5t-128 44.5q-93 0 -144.5 -56t-63.5 -171z" />
<glyph unicode="&#x178;" horiz-adv-x="1352" d="M-14 1313v47h544v-47q-83 0 -115 -15.5t-32 -54.5q0 -17 8 -37.5t37 -66.5l322 -529l286 475q22 35 31.5 65t9.5 60q0 46 -38.5 72t-112.5 31v47h434v-47q-129 -22 -263 -238l-3 -6l-322 -530v-328q0 -100 37.5 -131t146.5 -33v-47h-567v47q109 3 145.5 34t36.5 161v290 l-343 573q-5 8 -14 23q-109 179 -228 185zM379 1657q0 40 29 69.5t69 29.5q41 0 71 -29.5t30 -69.5q0 -42 -29.5 -71t-71.5 -29q-41 0 -69.5 28.5t-28.5 71.5zM760 1657q0 40 30 69.5t70 29.5t69.5 -29.5t29.5 -69.5q0 -43 -28.5 -71.5t-70.5 -28.5t-71 29t-29 71z" />
<glyph unicode="&#x2c6;" d="M213 965l233 348h117l232 -348h-58l-233 211l-232 -211h-59z" />
<glyph unicode="&#x2dc;" d="M217 1012q18 105 68 158t131 53q18 0 33.5 -2t29.5 -7l108 -28q24 -6 36 -8t20 -2q38 0 59.5 19.5t36.5 66.5h52q-21 -104 -69 -154.5t-126 -50.5q-16 0 -33.5 2.5t-40.5 7.5l-107 29q-12 3 -26 4.5t-31 1.5q-33 0 -54.5 -21.5t-35.5 -68.5h-51z" />
<glyph unicode="&#x2000;" horiz-adv-x="980" />
<glyph unicode="&#x2001;" horiz-adv-x="1960" />
<glyph unicode="&#x2002;" horiz-adv-x="980" />
<glyph unicode="&#x2003;" horiz-adv-x="1960" />
<glyph unicode="&#x2004;" horiz-adv-x="653" />
<glyph unicode="&#x2005;" horiz-adv-x="490" />
<glyph unicode="&#x2006;" horiz-adv-x="326" />
<glyph unicode="&#x2007;" horiz-adv-x="326" />
<glyph unicode="&#x2008;" horiz-adv-x="245" />
<glyph unicode="&#x2009;" horiz-adv-x="392" />
<glyph unicode="&#x200a;" horiz-adv-x="108" />
<glyph unicode="&#x2010;" horiz-adv-x="627" d="M70 344v137h485v-137h-485z" />
<glyph unicode="&#x2011;" horiz-adv-x="627" d="M70 344v137h485v-137h-485z" />
<glyph unicode="&#x2012;" horiz-adv-x="627" d="M70 344v137h485v-137h-485z" />
<glyph unicode="&#x2013;" d="M0 362v101h1024v-101h-1024z" />
<glyph unicode="&#x2014;" horiz-adv-x="2048" d="M0 362v101h2048v-101h-2048z" />
<glyph unicode="&#x2018;" horiz-adv-x="516" d="M139 1055q0 118 74 210.5t193 120.5v-57q-86 -24 -138.5 -87.5t-52.5 -143.5q0 -29 11.5 -45.5t31.5 -16.5q5 0 22 2t29 2q44 0 73.5 -26.5t29.5 -67.5q0 -47 -32 -77.5t-79 -30.5q-71 0 -116.5 60t-45.5 157z" />
<glyph unicode="&#x2019;" horiz-adv-x="516" d="M139 1278q0 47 32 77.5t79 30.5q71 0 116.5 -60t45.5 -157q0 -119 -73.5 -212t-191.5 -119v57q85 23 137 87t52 142q0 30 -11 47t-30 17q-5 0 -23 -2t-30 -2q-44 0 -73.5 27t-29.5 67z" />
<glyph unicode="&#x201a;" horiz-adv-x="516" d="M139 92q0 47 32 78t79 31q71 0 116.5 -60.5t45.5 -156.5q0 -119 -73 -210.5t-192 -119.5v55q85 24 137 87.5t52 142.5q0 31 -11 48t-30 17q-3 0 -21 -3t-32 -3q-44 0 -73.5 27t-29.5 67z" />
<glyph unicode="&#x201c;" horiz-adv-x="924" d="M139 1055q0 118 74 210.5t193 120.5v-57q-86 -24 -138.5 -87.5t-52.5 -143.5q0 -29 11.5 -45.5t31.5 -16.5q5 0 22 2t29 2q44 0 73.5 -26.5t29.5 -67.5q0 -47 -32 -77.5t-79 -30.5q-71 0 -116.5 60t-45.5 157zM545 1055q0 118 73.5 210.5t192.5 120.5v-57 q-86 -24 -138 -87.5t-52 -143.5q0 -29 11.5 -45.5t31.5 -16.5q4 0 22 2t31 2q44 0 73 -26.5t29 -67.5q0 -46 -32.5 -77t-79.5 -31q-72 0 -117 60t-45 157z" />
<glyph unicode="&#x201d;" horiz-adv-x="924" d="M139 1280q0 46 31.5 76t79.5 30q71 0 116.5 -60t45.5 -157q0 -118 -73.5 -210t-191.5 -119v55q85 23 137 87t52 142q0 30 -11.5 48t-29.5 18q-5 0 -23 -3t-30 -3q-44 0 -73.5 27.5t-29.5 68.5zM545 1280q0 46 31.5 76t78.5 30q72 0 118 -60t46 -157q0 -117 -74 -209.5 t-192 -119.5v55q85 23 136.5 87t51.5 142q0 30 -11 48t-30 18q-4 0 -22 -3t-31 -3q-44 0 -73 27.5t-29 68.5z" />
<glyph unicode="&#x201e;" horiz-adv-x="924" d="M139 94q0 47 31.5 77t79.5 30q71 0 116.5 -60.5t45.5 -156.5q0 -119 -73 -210.5t-192 -119.5v55q85 24 137 87.5t52 142.5q0 31 -11 48t-30 17q-3 0 -21 -3t-32 -3q-44 0 -73.5 27.5t-29.5 68.5zM545 94q0 47 31.5 77t78.5 30q72 0 118 -60.5t46 -156.5 q0 -118 -73.5 -209.5t-192.5 -120.5v55q85 24 136.5 87.5t51.5 142.5q0 31 -10.5 48t-30.5 17q-3 0 -21 -3t-32 -3q-44 0 -73 27.5t-29 68.5z" />
<glyph unicode="&#x2022;" horiz-adv-x="1208" d="M307 762q0 123 87 209t210 86q122 0 208.5 -86.5t86.5 -208.5t-87.5 -209.5t-209.5 -87.5q-123 0 -209 87t-86 210z" />
<glyph unicode="&#x2026;" horiz-adv-x="2048" d="M229 86q0 47 33 80t80 33t81 -34t34 -79q0 -47 -34 -81t-81 -34t-80 33.5t-33 81.5zM911 86q0 47 33 80t80 33t81 -34t34 -79q0 -47 -34 -81t-81 -34t-80 33.5t-33 81.5zM1595 86q0 47 33 80t80 33t81 -34t34 -79q0 -47 -34 -81t-81 -34t-80 33.5t-33 81.5z" />
<glyph unicode="&#x202f;" horiz-adv-x="392" />
<glyph unicode="&#x2039;" horiz-adv-x="545" d="M78 416l348 356h41l-215 -356l215 -363h-41z" />
<glyph unicode="&#x203a;" horiz-adv-x="545" d="M78 53l213 357l-213 360h41l346 -360l-346 -357h-41z" />
<glyph unicode="&#x205f;" horiz-adv-x="490" />
<glyph unicode="&#x2122;" horiz-adv-x="1683" d="M244 1260l12 178h440l11 -178h-25q-8 79 -40.5 115t-96.5 36h-21v-426q0 -23 12 -37t33 -16l31 -2v-27h-248v27l31 2q21 1 33 15.5t12 37.5v426h-20q-64 0 -97 -36t-41 -115h-26zM788 903v27l34 2q21 2 32.5 16t11.5 37v371q0 23 -12.5 37t-34.5 16l-31 2v27h183 l141 -400l148 400h174v-25l-30 -2q-22 -2 -34 -15.5t-12 -37.5v-373q0 -24 12 -37.5t34 -15.5l30 -2v-27h-236v27l31 2q21 2 33 16t12 37v395l-178 -479h-15l-174 479v-395q0 -23 12.5 -37t34.5 -16l31 -2v-27h-197z" />
<glyph unicode="&#x25fc;" horiz-adv-x="825" d="M0 0v825h825v-825h-825z" />
</font>
</defs>
</svg>
