<?xml version="1.0" encoding="utf-8"?>
<!-- Generator: Adobe Illustrator 15.1.0, SVG Export Plug-In  -->
<!DOCTYPE svg PUBLIC "-//W3C//DTD SVG 1.1//EN" "http://www.w3.org/Graphics/SVG/1.1/DTD/svg11.dtd" [
	<!ENTITY ns_flows "http://ns.adobe.com/Flows/1.0/">
]>
<svg version="1.1"
	 xmlns="http://www.w3.org/2000/svg" xmlns:xlink="http://www.w3.org/1999/xlink" xmlns:a="http://ns.adobe.com/AdobeSVGViewerExtensions/3.0/"
	 x="0px" y="0px" width="128px" height="128px" viewBox="0 0 128 128" enable-background="new 0 0 128 128" xml:space="preserve">
<defs>
	<symbol  id="Arrow_26" viewBox="-22.848 -13.154 45.695 26.309">
		<polygon fill="none" points="-22.848,-13.154 22.848,-13.154 22.848,13.154 -22.848,13.154 		"/>
		<g>
			<polygon points="-22.848,-6.346 0.069,-6.346 0.069,-13.154 22.848,0.001 0.069,13.154 0.069,6.346 -22.848,6.346 			"/>
		</g>
	</symbol>
</defs>
<rect fill="none" width="127.559" height="127.559"/>
<ellipse cx="72.043" cy="28.139" rx="7.122" ry="7.355"/>
<path d="M64.992,48.734V44.1c0-9.876,14.1-9.768,14.1,0v18.906h-0.025l13.322,13.759c1.257,1.298,1.41,1.354,3.879,1.354
	c0.002,0.002,8.145,0,8.145,0c8.195,0,13.113,7.608,13.113,14.056c0,6.449-4.918,14.601-13.839,14.601c0,0-11.088,0-14.513,0
	c-3.423,0-7.578-1.354-11-4.681L35.688,58.354c-0.904-0.831-1.407-1.09-2.968-1.09c0,0-5.855,0-10.492,0
	c-5.051,0-12.196-5.91-12.196-14.429c0-8.432,7.2-14.054,12.61-14.072h16.561c3.428,0,7.832,1.445,10.463,4.158L64.992,48.734
	L64.992,48.734z"/>
<use xlink:href="#Arrow_26"  width="45.695" height="26.309" x="-22.848" y="-13.154" transform="matrix(0.5182 0.5243 -0.5933 0.5865 38.3242 81.6406)" overflow="visible"/>
</svg>
