<?xml version="1.0" encoding="utf-8"?>
<!-- Generator: Adobe Illustrator 15.1.0, SVG Export Plug-In  -->
<!DOCTYPE svg PUBLIC "-//W3C//DTD SVG 1.1//EN" "http://www.w3.org/Graphics/SVG/1.1/DTD/svg11.dtd" [
	<!ENTITY ns_flows "http://ns.adobe.com/Flows/1.0/">
]>
<svg version="1.1"
	 xmlns="http://www.w3.org/2000/svg" xmlns:xlink="http://www.w3.org/1999/xlink" xmlns:a="http://ns.adobe.com/AdobeSVGViewerExtensions/3.0/"
	 x="0px" y="0px" width="128px" height="128px" viewBox="0 0 128 128" enable-background="new 0 0 128 128" xml:space="preserve">
<defs>
	<symbol  id="Arrow_26" viewBox="-22.848 -13.154 45.695 26.309">
		<polygon fill="none" points="-22.848,-13.154 22.848,-13.154 22.848,13.154 -22.848,13.154 		"/>
		<g>
			<polygon points="-22.848,-6.346 0.069,-6.346 0.069,-13.154 22.848,0.001 0.069,13.154 0.069,6.346 -22.848,6.346 			"/>
		</g>
	</symbol>
</defs>
<ellipse cx="67.51" cy="26.147" rx="6.977" ry="7.527"/>
<path id="path1329_5_" fill="#010101" d="M114.29,99.065H95.119V79.431H76.072V59.655H56.727V40.253H37.508v-19.28H8.981v9.839
	h18.968v19.348h19.233v19.625h19.2v19.521H85.66v19.687h28.63V99.065z"/>
<path d="M59.701,65.183c0,2.777,3.46,5.026,7.721,5.026l0,0c4.268,0,7.727-2.249,7.727-5.026V42.765
	c0-2.777-3.459-5.026-7.727-5.026l0,0c-4.261,0-7.721,2.249-7.721,5.026V65.183z"/>
<use xlink:href="#Arrow_26"  width="45.695" height="26.309" x="-22.848" y="-13.154" transform="matrix(-0.5077 -0.5367 0.5813 -0.6002 40.4541 82.6055)" overflow="visible"/>
<rect fill="none" width="127.557" height="127.559"/>
</svg>
