<?xml version="1.0" encoding="utf-8"?>
<!-- Generator: Adobe Illustrator 15.1.0, SVG Export Plug-In  -->
<!DOCTYPE svg PUBLIC "-//W3C//DTD SVG 1.1//EN" "http://www.w3.org/Graphics/SVG/1.1/DTD/svg11.dtd" [
	<!ENTITY ns_flows "http://ns.adobe.com/Flows/1.0/">
]>
<svg version="1.1"
	 xmlns="http://www.w3.org/2000/svg" xmlns:xlink="http://www.w3.org/1999/xlink" xmlns:a="http://ns.adobe.com/AdobeSVGViewerExtensions/3.0/"
	 x="0px" y="0px" width="128px" height="128px" viewBox="0 0 128 128" enable-background="new 0 0 128 128" xml:space="preserve">
<defs>
	<symbol  id="Arrow_26" viewBox="-22.848 -13.154 45.695 26.309">
		<polygon fill="none" points="-22.848,-13.154 22.848,-13.154 22.848,13.154 -22.848,13.154 		"/>
		<g>
			<polygon points="-22.848,-6.346 0.069,-6.346 0.069,-13.154 22.848,0.001 0.069,13.154 0.069,6.346 -22.848,6.346 			"/>
		</g>
	</symbol>
</defs>
<path id="path1329_5_" fill="#010101" d="M8.982,99.065h19.17V79.431H47.2V59.655h19.345V40.253h19.219v-19.28h28.526v9.839H95.323
	v19.348H76.089v19.625h-19.2v19.521H37.612v19.687H8.982V99.065z"/>
<path d="M55.763,33.675c3.85,0,6.976-3.369,6.976-7.526c0-4.158-3.125-7.528-6.976-7.528c-3.855,0-6.976,3.37-6.976,7.528
	C48.787,30.306,51.907,33.675,55.763,33.675z"/>
<path d="M63.57,65.183c0,2.777-3.459,5.026-7.721,5.026l0,0c-4.267,0-7.726-2.249-7.726-5.026V42.765
	c0-2.777,3.458-5.026,7.726-5.026l0,0c4.261,0,7.721,2.249,7.721,5.026V65.183z"/>
<use xlink:href="#Arrow_26"  width="45.695" height="26.309" x="-22.848" y="-13.154" transform="matrix(-0.5077 0.5367 0.5813 0.6002 82.8179 82.6055)" overflow="visible"/>
<rect fill="none" width="127.558" height="127.559"/>
</svg>
